<?xml version='1.0' encoding='UTF-8' standalone='no'?>
<!-- Created with Fritzing (http://www.fritzing.org/) -->
<svg xmlns="http://www.w3.org/2000/svg" x="0in" width="1.37207in" y="0in" viewBox="0 0 98.7894 70.4353" height="0.978268in"  version="1.2" baseProfile="tiny" xmlns:svg="http://www.w3.org/2000/svg">
 <g transform="matrix(-1, 0, 0, 1, 98.7894, 0)">
  <g partID="57381">
   <g id="silkscreen">
    <rect width="98.2134" x="0.288" y="0.288" height="69.8593" stroke-width="0.576" fill="none" stroke="black"/>
   </g>
  </g>
  <g partID="57380">
   <g id="board">
    <rect width="98.2134" x="0.288" y="0.288" height="69.8593" stroke-width="0.5" id="boardoutline" fill-opacity="0.5" fill="none" stroke="black"/>
   </g>
  </g>
  <g partID="246832">
   <g transform="translate(40.09,0.99112)">
    <g id="silkscreen">
     <line stroke-width="1.512" y1="5.64924" y2="12.9214" stroke-linecap="round" x1="7.29857" x2="27.9388" stroke="black"/>
    </g>
   </g>
  </g>
  <g partID="137302">
   <g transform="translate(12.1894,49.873)">
    <g transform="matrix(-1,0,0,-1,0,0)">
     <g id="silkscreen">
      <line stroke-width="0.72" y1="1.44" y2="15.84" x1="1.44" x2="1.44" stroke="black"/>
      <line stroke-width="0.72" y1="15.84" y2="15.84" x1="1.44" x2="8.64" stroke="black"/>
      <line stroke-width="0.72" y1="15.84" y2="1.44" x1="8.64" x2="8.64" stroke="black"/>
      <line stroke-width="0.72" y1="1.44" y2="1.44" x1="8.64" x2="1.44" stroke="black"/>
      <line stroke-width="0.36" y1="3.96" y2="1.44" x1="1.44" x2="3.96" stroke="black"/>
      <!-- 120 -->
     </g>
    </g>
   </g>
  </g>
  <g partID="227942">
   <g transform="translate(17.0271,62.74)">
    <g transform="matrix(0,-1,1,0,0,0)">
     <g id="silkscreen">
      <line class="other" stroke-width="0.576" y1="0.288" y2="0.288" x1="0.288" stroke-linecap="round" x2="33.1699" stroke="black"/>
      <line class="other" stroke-width="0.576" y1="0.288" y2="17.8628" x1="33.1699" stroke-linecap="round" x2="33.1699" stroke="black"/>
      <line class="other" stroke-width="0.576" y1="17.8628" y2="20.1306" x1="33.1699" stroke-linecap="round" x2="33.1699" stroke="black"/>
      <line class="other" stroke-width="0.576" y1="20.1306" y2="20.1306" x1="33.1699" stroke-linecap="round" x2="0.288" stroke="black"/>
      <line class="other" stroke-width="0.576" y1="20.1306" y2="17.8628" x1="0.288" stroke-linecap="round" x2="0.288" stroke="black"/>
      <line class="other" stroke-width="0.576" y1="17.8628" y2="0.288" x1="0.288" stroke-linecap="round" x2="0.288" stroke="black"/>
      <line class="other" stroke-width="0.576" y1="17.8628" y2="17.8628" x1="33.1699" stroke-linecap="round" x2="0.288" stroke="black"/>
     </g>
    </g>
   </g>
  </g>
  <g partID="86152">
   <g transform="translate(37.8684,18.3053)">
    <g transform="matrix(0.707107,-0.707107,0.707107,0.707107,0,0)">
     <g id="silkscreen">
      <circle stroke-width="0.72" id="circle7" cx="7.56" r="7.2" cy="7.56" fill="none" stroke="black"/>
      <path stroke-width="0.792" stroke-linecap="round" d="m2.88,3.6,2.16,0" fill="none" stroke="black"/>
      <path stroke-width="0.792" stroke-linecap="round" d="m2.88,11.52,2.16,0" fill="none" stroke="black"/>
     </g>
    </g>
   </g>
  </g>
  <g partID="85772">
   <g transform="translate(2.74864,8.31648)">
    <g id="silkscreen">
     <circle stroke-width="0.72" id="circle7" cx="7.56" r="7.2" cy="7.56" fill="none" stroke="black"/>
     <path stroke-width="0.792" stroke-linecap="round" d="m2.88,3.6,2.16,0" fill="none" stroke="black"/>
     <path stroke-width="0.792" stroke-linecap="round" d="m2.88,11.52,2.16,0" fill="none" stroke="black"/>
    </g>
   </g>
  </g>
  <g partID="91172">
   <g transform="translate(73.931,47.7254)">
    <g transform="matrix(0,-1,1,0,0,0)">
     <g id="silkscreen">
      <line stroke-width="0.72" y1="3.096" y2="3.096" x1="5.4" x2="10.584" stroke="black"/>
      <line stroke-width="0.72" y1="3.096" y2="3.096" x1="24.984" x2="28.8" stroke="black"/>
      <line stroke-width="0.72" y1="0.72" y2="0.72" x1="10.584" x2="24.984" stroke="black"/>
      <line stroke-width="0.72" y1="0.72" y2="5.472" x1="24.984" x2="24.984" stroke="black"/>
      <line stroke-width="0.72" y1="5.472" y2="5.472" x1="24.984" x2="10.584" stroke="black"/>
      <line stroke-width="0.72" y1="5.472" y2="0.72" x1="10.584" x2="10.584" stroke="black"/>
     </g>
    </g>
   </g>
  </g>
  <g partID="91652">
   <g transform="translate(67.4038,52.1796)">
    <g transform="matrix(0,-1,1,0,0,0)">
     <g id="silkscreen">
      <line stroke-width="0.72" y1="3.096" y2="3.096" x1="5.4" x2="10.584" stroke="black"/>
      <line stroke-width="0.72" y1="3.096" y2="3.096" x1="24.984" x2="28.8" stroke="black"/>
      <line stroke-width="0.72" y1="0.72" y2="0.72" x1="10.584" x2="24.984" stroke="black"/>
      <line stroke-width="0.72" y1="0.72" y2="5.472" x1="24.984" x2="24.984" stroke="black"/>
      <line stroke-width="0.72" y1="5.472" y2="5.472" x1="24.984" x2="10.584" stroke="black"/>
      <line stroke-width="0.72" y1="5.472" y2="0.72" x1="10.584" x2="10.584" stroke="black"/>
     </g>
    </g>
   </g>
  </g>
  <g partID="91992">
   <g transform="translate(46.6254,28.22)">
    <g transform="matrix(0,1,-1,0,0,0)">
     <g id="silkscreen">
      <line stroke-width="0.72" y1="3.096" y2="3.096" x1="5.4" x2="10.584" stroke="black"/>
      <line stroke-width="0.72" y1="3.096" y2="3.096" x1="24.984" x2="28.8" stroke="black"/>
      <line stroke-width="0.72" y1="0.72" y2="0.72" x1="10.584" x2="24.984" stroke="black"/>
      <line stroke-width="0.72" y1="0.72" y2="5.472" x1="24.984" x2="24.984" stroke="black"/>
      <line stroke-width="0.72" y1="5.472" y2="5.472" x1="24.984" x2="10.584" stroke="black"/>
      <line stroke-width="0.72" y1="5.472" y2="0.72" x1="10.584" x2="10.584" stroke="black"/>
     </g>
    </g>
   </g>
  </g>
  <g partID="102802">
   <g transform="translate(10.7528,21.6034)">
    <g transform="matrix(1,0,0,1,0,0)">
     <g id="silkscreen">
      <g transform="matrix(1, 0, 0, 1, -1.43333, -1.16)">
       <path stroke-width="0.576" id="path2830" d="m6.65907,2.30036a1.84667,1.58,0,0,1,2.51037,0.001464" style="stroke-linecap:round;stroke-linejoin:round;stroke-miterlimit:4;stroke-dasharray:none" fill="none" stroke-opacity="1" stroke="black"/>
      </g>
      <g transform="matrix(-1, 0, 0, -1, 14.3952, 6.92)">
       <path stroke-width="0.576" id="path2830-1" d="m6.65907,2.30036a1.84667,1.58,0,0,1,2.51037,0.001464" style="stroke-linecap:round;stroke-linejoin:round;stroke-miterlimit:4;stroke-dasharray:none" fill="none" stroke-opacity="1" stroke="black"/>
      </g>
     </g>
    </g>
   </g>
  </g>
  <g partID="65542">
   <g transform="translate(13.3326,-36.5395)">
    <g id="silkscreen">
     <line class="other" stroke-width="0.432" y1="45.216" y2="45.216" x1="0.216" stroke-linecap="round" x2="29.736" stroke="black"/>
     <line class="other" stroke-width="0.432" y1="0.216" y2="0.216" x1="29.736" stroke-linecap="round" x2="0.216" stroke="black"/>
     <line class="other" stroke-width="0.432" y1="45.216" y2="9.936" x1="29.736" stroke-linecap="round" x2="29.736" stroke="black"/>
     <line class="other" stroke-width="0.432" y1="9.936" y2="9.936" x1="29.736" stroke-linecap="round" x2="27.216" stroke="black"/>
     <line class="other" stroke-width="0.432" y1="9.936" y2="5.616" x1="27.216" stroke-linecap="round" x2="27.216" stroke="black"/>
     <line class="other" stroke-width="0.432" y1="5.616" y2="5.616" x1="27.216" stroke-linecap="round" x2="29.736" stroke="black"/>
     <line class="other" stroke-width="0.432" y1="5.616" y2="0.216" x1="29.736" stroke-linecap="round" x2="29.736" stroke="black"/>
     <line class="other" stroke-width="0.432" y1="45.216" y2="9.936" x1="0.216" stroke-linecap="round" x2="0.216" stroke="black"/>
     <line class="other" stroke-width="0.432" y1="9.936" y2="9.936" x1="0.216" stroke-linecap="round" x2="2.736" stroke="black"/>
     <line class="other" stroke-width="0.432" y1="9.936" y2="5.616" x1="2.736" stroke-linecap="round" x2="2.736" stroke="black"/>
     <line class="other" stroke-width="0.432" y1="5.616" y2="5.616" x1="2.736" stroke-linecap="round" x2="0.216" stroke="black"/>
     <line class="other" stroke-width="0.432" y1="5.616" y2="0.216" x1="0.216" stroke-linecap="round" x2="0.216" stroke="black"/>
     <line class="other" stroke-width="0.144" y1="43.416" y2="43.416" x1="2.016" stroke-linecap="round" x2="27.936" stroke="black"/>
     <line class="other" stroke-width="0.144" y1="20.016" y2="43.416" x1="27.936" stroke-linecap="round" x2="27.936" stroke="black"/>
     <line class="other" stroke-width="0.144" y1="20.016" y2="20.016" x1="27.936" stroke-linecap="round" x2="2.016" stroke="black"/>
     <line class="other" stroke-width="0.144" y1="43.416" y2="20.016" x1="2.016" stroke-linecap="round" x2="2.016" stroke="black"/>
     <circle class="other" stroke-width="0.432" cx="14.976" r="5.112" cy="9.936" fill="none" stroke="black"/>
     <text x="2.376" y="19.296" class="text" stroke-width="0" text-anchor="start" font-size="3.6504" fill="black" font-family="OCRA" stroke="none">A15,2mm</text>
     <rect x="20.376" width="3.6" y="45.216" class="other" height="2.52" stroke-width="0" stroke-linecap="round" fill="black" stroke="none"/>
     <rect x="13.176" width="3.6" y="45.216" class="other" height="2.52" stroke-width="0" stroke-linecap="round" fill="black" stroke="none"/>
     <rect x="5.976" width="3.6" y="45.216" class="other" height="2.52" stroke-width="0" stroke-linecap="round" fill="black" stroke="none"/>
    </g>
   </g>
  </g>
  <g partID="68482">
   <g transform="translate(81.203,50.5846)">
    <g transform="matrix(0,-1,1,0,0,0)">
     <g id="silkscreen">
      <line class="other" stroke-width="0.36" y1="0.18" y2="16.02" x1="0.18" stroke-linecap="round" x2="0.18" stroke="black"/>
      <line class="other" stroke-width="0.36" y1="0.18" y2="16.02" x1="28.98" stroke-linecap="round" x2="28.98" stroke="black"/>
      <line class="other" stroke-width="0.36" y1="0.18" y2="0.18" x1="28.98" stroke-linecap="round" x2="0.18" stroke="black"/>
      <line class="other" stroke-width="0.36" y1="16.02" y2="16.02" x1="28.98" stroke-linecap="round" x2="25.38" stroke="black"/>
      <line class="other" stroke-width="0.36" y1="16.02" y2="16.02" x1="25.38" stroke-linecap="round" x2="3.78" stroke="black"/>
      <line class="other" stroke-width="0.36" y1="16.02" y2="16.02" x1="3.78" stroke-linecap="round" x2="0.18" stroke="black"/>
      <line class="other" stroke-width="0.36" y1="16.02" y2="12.42" x1="3.78" stroke-linecap="round" x2="3.78" stroke="black"/>
      <line class="other" stroke-width="0.36" y1="12.42" y2="12.42" x1="3.78" stroke-linecap="round" x2="25.38" stroke="black"/>
      <line class="other" stroke-width="0.36" y1="12.42" y2="16.02" x1="25.38" stroke-linecap="round" x2="25.38" stroke="black"/>
     </g>
    </g>
   </g>
  </g>
  <g partID="57452">
   <g transform="translate(50.3237,57.334)">
    <g transform="matrix(0,-1,1,0,0,0)">
     <g id="silkscreen" gorn="0.1">
      <polygon points="0.289838,2.088,2.10133,0.288,0.289838,0.288" class="other" stroke-width="0.579676" stroke-linecap="round" stroke="black"/>
      <line class="other" stroke-width="0.579676" y1="12.888" y2="14.688" stroke-linecap="round" x1="0.289838" x2="2.10133" stroke="black"/>
      <line class="other" stroke-width="0.579676" y1="14.688" y2="12.888" stroke-linecap="round" x1="5.7243" x2="7.53579" stroke="black"/>
      <line class="other" stroke-width="0.579676" y1="12.888" y2="14.688" stroke-linecap="round" x1="7.53579" x2="9.34727" stroke="black"/>
      <line class="other" stroke-width="0.579676" y1="14.688" y2="12.888" stroke-linecap="round" x1="12.9702" x2="14.7817" stroke="black"/>
      <line class="other" stroke-width="0.579676" y1="12.888" y2="14.688" stroke-linecap="round" x1="14.7817" x2="16.5932" stroke="black"/>
      <line class="other" stroke-width="0.579676" y1="14.688" y2="12.888" stroke-linecap="round" x1="20.2162" x2="22.0277" stroke="black"/>
      <line class="other" stroke-width="0.579676" y1="12.888" y2="2.088" stroke-linecap="round" x1="0.289838" x2="0.289838" stroke="black"/>
      <line class="other" stroke-width="0.579676" y1="2.088" y2="0.288" stroke-linecap="round" x1="0.289838" x2="2.10133" stroke="black"/>
      <line class="other" stroke-width="0.579676" y1="0.288" y2="0.288" stroke-linecap="round" x1="2.10133" x2="5.7243" stroke="black"/>
      <line class="other" stroke-width="0.579676" y1="0.288" y2="2.088" stroke-linecap="round" x1="5.7243" x2="7.53579" stroke="black"/>
      <line class="other" stroke-width="0.579676" y1="2.088" y2="0.288" stroke-linecap="round" x1="7.53579" x2="9.34727" stroke="black"/>
      <line class="other" stroke-width="0.579676" y1="0.288" y2="0.288" stroke-linecap="round" x1="9.34727" x2="12.9702" stroke="black"/>
      <line class="other" stroke-width="0.579676" y1="0.288" y2="2.088" stroke-linecap="round" x1="12.9702" x2="14.7817" stroke="black"/>
      <line class="other" stroke-width="0.579676" y1="2.088" y2="0.288" stroke-linecap="round" x1="14.7817" x2="16.5932" stroke="black"/>
      <line class="other" stroke-width="0.579676" y1="0.288" y2="0.288" stroke-linecap="round" x1="16.5932" x2="20.2162" stroke="black"/>
      <line class="other" stroke-width="0.579676" y1="0.288" y2="2.088" stroke-linecap="round" x1="20.2162" x2="22.0277" stroke="black"/>
      <line class="other" stroke-width="0.579676" y1="14.688" y2="14.688" stroke-linecap="round" x1="16.5932" x2="20.2162" stroke="black"/>
      <line class="other" stroke-width="0.579676" y1="14.688" y2="14.688" stroke-linecap="round" x1="9.34727" x2="12.9702" stroke="black"/>
      <line class="other" stroke-width="0.579676" y1="14.688" y2="14.688" stroke-linecap="round" x1="2.10133" x2="5.7243" stroke="black"/>
      <line class="other" stroke-width="0.579676" y1="14.688" y2="12.888" stroke-linecap="round" x1="27.4621" x2="29.2736" stroke="black"/>
      <line class="other" stroke-width="0.579676" y1="0.288" y2="0.288" stroke-linecap="round" x1="23.8392" x2="27.4621" stroke="black"/>
      <line class="other" stroke-width="0.579676" y1="0.288" y2="2.088" stroke-linecap="round" x1="27.4621" x2="29.2736" stroke="black"/>
      <line class="other" stroke-width="0.579676" y1="2.088" y2="12.888" stroke-linecap="round" x1="29.2736" x2="29.2736" stroke="black"/>
      <line class="other" stroke-width="0.579676" y1="14.688" y2="14.688" stroke-linecap="round" x1="23.8392" x2="27.4621" stroke="black"/>
      <line class="other" stroke-width="0.579676" y1="2.088" y2="0.288" stroke-linecap="round" x1="22.0277" x2="23.8392" stroke="black"/>
      <line class="other" stroke-width="0.579676" y1="12.888" y2="14.688" stroke-linecap="round" x1="22.0277" x2="23.8392" stroke="black"/>
     </g>
    </g>
   </g>
  </g>
  <g partID="57381">
   <g id="silkscreen">
    <rect width="98.2134" x="0.288" y="0.288" height="69.8593" stroke-width="0.576" fill="none" stroke="black"/>
   </g>
  </g>
  <g partID="57450" id="partLabel">
   <g transform="translate(52.3582,58.8949)">
    <g id="silkscreenLabel" fill-opacity="1" font-weight="normal" font-size="5" fill="#000000" font-style="normal" font-family="'OCRA'" stroke="none">
     <text x="0" y="3.75">ESP</text>
    </g>
   </g>
  </g>
  <g partID="85770" id="partLabel">
   <g transform="translate(6.85184,3.04608)">
    <g id="silkscreenLabel" fill-opacity="1" font-weight="normal" font-size="5" fill="#000000" font-style="normal" font-family="'OCRA'" stroke="none">
     <text x="0" y="3.75">C4</text>
    </g>
   </g>
  </g>
  <g partID="91170" id="partLabel">
   <g transform="translate(74.7982,27.1914)">
    <g id="silkscreenLabel" fill-opacity="1" font-weight="normal" font-size="5" fill="#000000" font-style="normal" font-family="'OCRA'" stroke="none">
     <text x="0" y="3.75">R3</text>
    </g>
   </g>
  </g>
  <g partID="91990" id="partLabel">
   <g transform="translate(40.8079,42.0238)">
    <g id="silkscreenLabel" fill-opacity="1" font-weight="normal" font-size="5" fill="#000000" font-style="normal" font-family="'OCRA'" stroke="none">
     <text x="0" y="3.75">R1</text>
    </g>
   </g>
  </g>
  <g partID="102800" id="partLabel">
   <g transform="translate(1.54624,27.101)">
    <g id="silkscreenLabel" fill-opacity="1" font-weight="normal" font-size="5" fill="#000000" font-style="normal" font-family="'OCRA'" stroke="none">
     <text x="0" y="3.75">104</text>
    </g>
   </g>
  </g>
  <g partID="91650" id="partLabel">
   <g transform="translate(66.859,33.6128)">
    <g id="silkscreenLabel" fill-opacity="1" font-weight="normal" font-size="5" fill="#000000" font-style="normal" font-family="'OCRA'" stroke="none">
     <text x="0" y="3.75">R2</text>
    </g>
   </g>
  </g>
  <g partID="137300" id="partLabel">
   <g transform="translate(17.2279,35.5136)">
    <g transform="matrix(0,1,-1,0,0,0)">
     <g id="silkscreenLabel" fill-opacity="1" font-weight="normal" font-size="5" fill="#000000" font-style="normal" font-family="'OCRA'" stroke="none">
      <text x="0" y="3.75">+ -</text>
     </g>
    </g>
   </g>
  </g>
  <g partID="227940" id="partLabel">
   <g transform="translate(8.81808,60.1033)">
    <g id="silkscreenLabel" fill-opacity="1" font-weight="normal" font-size="5" fill="#000000" font-style="normal" font-family="'OCRA'" stroke="none">
     <text x="0" y="3.75">jack switch</text>
    </g>
   </g>
  </g>
  <g partID="246831">
   <g transform="translate(40.09,0.99112)">
    <g id="copper1">
     <circle stroke-width="2.16" id="connector0pad" cx="4.752" r="1.98" cy="4.752" fill="white" stroke="white"/>
     <circle stroke-width="2.16" id="connector1pad" cx="30.4853" r="1.98" cy="13.8187" fill="white" stroke="white"/>
    </g>
   </g>
  </g>
  <g partID="186741">
   <g transform="translate(0.81968,61.4962)">
    <g id="copper1">
     <circle stroke-width="1.57039" id="connector0pin" cx="3.86772" r="1.84252" cy="3.86772" fill="white" stroke="white"/>
    </g>
   </g>
  </g>
  <g partID="186721">
   <g transform="translate(0.89872,1.21704)">
    <g id="copper1">
     <circle stroke-width="1.57039" id="connector0pin" cx="3.86772" r="1.84252" cy="3.86772" fill="white" stroke="white"/>
    </g>
   </g>
  </g>
  <g partID="186611">
   <g transform="translate(90.4782,61.9031)">
    <g id="copper1">
     <circle stroke-width="1.57039" id="connector0pin" cx="3.86772" r="1.84252" cy="3.86772" fill="white" stroke="white"/>
    </g>
   </g>
  </g>
  <g partID="186581">
   <g transform="translate(90.1902,1.05424)">
    <g id="copper1">
     <circle stroke-width="1.57039" id="connector0pin" cx="3.86772" r="1.84252" cy="3.86772" fill="white" stroke="white"/>
    </g>
   </g>
  </g>
  <g partID="137301">
   <g transform="translate(12.1894,49.873)">
    <g transform="matrix(-1,0,0,-1,0,0)">
     <g id="copper1">
      <g id="copper0">
       <circle stroke-width="2.16" id="connector0pin" cx="5.04" r="2.088" cy="5.04" fill="white" stroke="white"/>
       <circle stroke-width="2.16" id="connector1pin" cx="5.04" r="2.088" cy="12.24" fill="white" stroke="white"/>
      </g>
     </g>
    </g>
   </g>
  </g>
  <g partID="227941">
   <g transform="translate(17.0271,62.74)">
    <g transform="matrix(0,-1,1,0,0,0)">
     <g id="copper1">
      <circle connectorname="1" stroke-width="1.89921" id="connector0pad" cx="6.30369" r="2.29039" cy="9.92581" fill="white" stroke="white"/>
      <path stroke-width="0.72" d="m3.42369,7.04581,5.76,0,0,5.76001,-5.76,0,0,-5.76001zM4.6029,9.92581a1.70079,1.70079,0,1,0,3.40158,0,1.70079,1.70079,0,1,0,-3.40158,0z" fill="white" stroke="white"/>
      <circle connectorname="2" stroke-width="1.89921" id="connector1pad" cx="16.7289" r="2.29039" cy="9.92581" fill="white" stroke="white"/>
      <circle connectorname="3" stroke-width="1.89921" id="connector2pad" cx="27.1542" r="2.29039" cy="9.92581" fill="white" stroke="white"/>
      <g id="copper0">
       <circle connectorname="1" stroke-width="1.89921" id="connector0pad" cx="6.30369" r="2.29039" cy="9.92581" fill="white" stroke="white"/>
       <path stroke-width="0.72" d="m3.42369,7.04581,5.76,0,0,5.76001,-5.76,0,0,-5.76001zM4.6029,9.92581a1.70079,1.70079,0,1,0,3.40158,0,1.70079,1.70079,0,1,0,-3.40158,0z" fill="white" stroke="white"/>
       <circle connectorname="2" stroke-width="1.89921" id="connector1pad" cx="16.7289" r="2.29039" cy="9.92581" fill="white" stroke="white"/>
       <circle connectorname="3" stroke-width="1.89921" id="connector2pad" cx="27.1542" r="2.29039" cy="9.92581" fill="white" stroke="white"/>
      </g>
     </g>
    </g>
   </g>
  </g>
  <g partID="86151">
   <g transform="translate(37.8684,18.3053)">
    <g transform="matrix(0.707107,-0.707107,0.707107,0.707107,0,0)">
     <g id="copper1">
      <g id="copper0">
       <rect width="3.96" x="1.98" y="5.58" height="3.96" stroke-width="2.16" id="rect11" fill="white" stroke="white"/>
       <circle stroke-width="2.16" id="connector0pin" cx="3.96" r="1.98" cy="7.56" fill="white" stroke="white"/>
       <circle stroke-width="2.16" id="connector1pin" cx="11.16" r="1.98" cy="7.56" fill="white" stroke="white"/>
      </g>
     </g>
    </g>
   </g>
  </g>
  <g partID="85771">
   <g transform="translate(2.74864,8.31648)">
    <g id="copper1">
     <g id="copper0">
      <rect width="3.96" x="1.98" y="5.58" height="3.96" stroke-width="2.16" id="rect11" fill="white" stroke="white"/>
      <circle stroke-width="2.16" id="connector0pin" cx="3.96" r="1.98" cy="7.56" fill="white" stroke="white"/>
      <circle stroke-width="2.16" id="connector1pin" cx="11.16" r="1.98" cy="7.56" fill="white" stroke="white"/>
     </g>
    </g>
   </g>
  </g>
  <g partID="91171">
   <g transform="translate(73.931,47.7254)">
    <g transform="matrix(0,-1,1,0,0,0)">
     <g id="copper1">
      <!-- <rect width="55" x="10" y="15.5" fill="none" height="55" stroke="rgb(255, 191, 0)" stroke-width="20" />  -->
      <circle stroke-width="2.16" id="connector0pin" cx="2.7" r="1.98" cy="3.096" fill="white" stroke="white"/>
      <circle stroke-width="2.16" id="connector1pin" cx="31.5" r="1.98" cy="3.096" fill="white" stroke="white"/>
     </g>
    </g>
   </g>
  </g>
  <g partID="91651">
   <g transform="translate(67.4038,52.1796)">
    <g transform="matrix(0,-1,1,0,0,0)">
     <g id="copper1">
      <!-- <rect width="55" x="10" y="15.5" fill="none" height="55" stroke="rgb(255, 191, 0)" stroke-width="20" />  -->
      <circle stroke-width="2.16" id="connector0pin" cx="2.7" r="1.98" cy="3.096" fill="white" stroke="white"/>
      <circle stroke-width="2.16" id="connector1pin" cx="31.5" r="1.98" cy="3.096" fill="white" stroke="white"/>
     </g>
    </g>
   </g>
  </g>
  <g partID="91991">
   <g transform="translate(46.6254,28.22)">
    <g transform="matrix(0,1,-1,0,0,0)">
     <g id="copper1">
      <!-- <rect width="55" x="10" y="15.5" fill="none" height="55" stroke="rgb(255, 191, 0)" stroke-width="20" />  -->
      <circle stroke-width="2.16" id="connector0pin" cx="2.7" r="1.98" cy="3.096" fill="white" stroke="white"/>
      <circle stroke-width="2.16" id="connector1pin" cx="31.5" r="1.98" cy="3.096" fill="white" stroke="white"/>
     </g>
    </g>
   </g>
  </g>
  <g partID="102801">
   <g transform="translate(10.7528,21.6034)">
    <g transform="matrix(1,0,0,1,0,0)">
     <g id="copper1">
      <circle stroke-width="2.16" id="connector0pin" cx="2.88" r="1.8" cy="2.88" fill="white" stroke="white"/>
      <circle stroke-width="2.16" id="connector1pin" cx="10.0933" r="1.8" cy="2.88" fill="white" stroke="white"/>
     </g>
    </g>
   </g>
  </g>
  <g partID="65541">
   <g transform="translate(13.3326,-36.5395)">
    <g id="copper1">
     <circle connectorname="IN" stroke-width="1.44" id="connector1pad" cx="7.776" r="1.8" cy="52.416" fill="white" stroke="white"/>
     <path stroke-width="0.72" d="m7.776,48.096a2.16,2.16,0,0,1,2.16,2.16l0,4.32a2.16,2.16,0,0,1,-2.16,2.16l0,0a2.16,2.16,0,0,1,-2.16,-2.16l0,-4.32a2.16,2.16,0,0,1,2.16,-2.16l0,0zM6.336,52.416a1.44,1.44,0,1,0,2.88,0,1.44,1.44,0,1,0,-2.88,0z" fill="white" stroke="white"/>
     <circle connectorname="GND" stroke-width="1.44" id="connector0pad" cx="14.976" r="1.8" cy="52.416" fill="white" stroke="white"/>
     <path stroke-width="0.72" d="m14.976,48.096a2.16,2.16,0,0,1,2.16,2.16l0,4.32a2.16,2.16,0,0,1,-2.16,2.16l0,0a2.16,2.16,0,0,1,-2.16,-2.16l0,-4.32a2.16,2.16,0,0,1,2.16,-2.16l0,0zM13.536,52.416a1.44,1.44,0,1,0,2.88,0,1.44,1.44,0,1,0,-2.88,0z" fill="white" stroke="white"/>
     <circle connectorname="OUT" stroke-width="1.44" id="connector2pad" cx="22.176" r="1.8" cy="52.416" fill="white" stroke="white"/>
     <path stroke-width="0.72" d="m22.176,48.096a2.16,2.16,0,0,1,2.16,2.16l0,4.32a2.16,2.16,0,0,1,-2.16,2.16l0,0a2.16,2.16,0,0,1,-2.16,-2.16l0,-4.32a2.16,2.16,0,0,1,2.16,-2.16l0,0zM20.736,52.416a1.44,1.44,0,1,0,2.88,0,1.44,1.44,0,1,0,-2.88,0z" fill="white" stroke="white"/>
     <circle stroke-width="0.72" id="nonconn0" cx="14.976" r="4.68" cy="9.936" fill="white" stroke="white"/>
     <g id="copper0">
      <circle connectorname="IN" stroke-width="1.44" id="connector1pad" cx="7.776" r="1.8" cy="52.416" fill="white" stroke="white"/>
      <path stroke-width="0.72" d="m7.776,48.096a2.16,2.16,0,0,1,2.16,2.16l0,4.32a2.16,2.16,0,0,1,-2.16,2.16l0,0a2.16,2.16,0,0,1,-2.16,-2.16l0,-4.32a2.16,2.16,0,0,1,2.16,-2.16l0,0zM6.336,52.416a1.44,1.44,0,1,0,2.88,0,1.44,1.44,0,1,0,-2.88,0z" fill="white" stroke="white"/>
      <circle connectorname="GND" stroke-width="1.44" id="connector0pad" cx="14.976" r="1.8" cy="52.416" fill="white" stroke="white"/>
      <path stroke-width="0.72" d="m14.976,48.096a2.16,2.16,0,0,1,2.16,2.16l0,4.32a2.16,2.16,0,0,1,-2.16,2.16l0,0a2.16,2.16,0,0,1,-2.16,-2.16l0,-4.32a2.16,2.16,0,0,1,2.16,-2.16l0,0zM13.536,52.416a1.44,1.44,0,1,0,2.88,0,1.44,1.44,0,1,0,-2.88,0z" fill="white" stroke="white"/>
      <circle connectorname="OUT" stroke-width="1.44" id="connector2pad" cx="22.176" r="1.8" cy="52.416" fill="white" stroke="white"/>
      <path stroke-width="0.72" d="m22.176,48.096a2.16,2.16,0,0,1,2.16,2.16l0,4.32a2.16,2.16,0,0,1,-2.16,2.16l0,0a2.16,2.16,0,0,1,-2.16,-2.16l0,-4.32a2.16,2.16,0,0,1,2.16,-2.16l0,0zM20.736,52.416a1.44,1.44,0,1,0,2.88,0,1.44,1.44,0,1,0,-2.88,0z" fill="white" stroke="white"/>
      <circle stroke-width="0.72" id="nonconn1" cx="14.976" r="4.68" cy="9.936" fill="white" stroke="white"/>
     </g>
    </g>
   </g>
  </g>
  <g partID="68481">
   <g transform="translate(81.203,50.5846)">
    <g transform="matrix(0,-1,1,0,0,0)">
     <g id="copper1">
      <circle connectorname="1" stroke-width="1.944" id="connector0pad" cx="3.78" r="2.052" cy="8.46" fill="white" stroke="white"/>
      <path stroke-width="0.72" d="m1.116,5.796,5.328,0,0,5.328,-5.328,0,0,-5.328zM2.34,8.46a1.44,1.44,0,1,0,2.88,0,1.44,1.44,0,1,0,-2.88,0z" fill="white" stroke="white"/>
      <circle connectorname="2" stroke-width="1.944" id="connector1pad" cx="10.98" r="2.052" cy="9.18" fill="white" stroke="white"/>
      <circle connectorname="3" stroke-width="1.944" id="connector2pad" cx="18.18" r="2.052" cy="8.46" fill="white" stroke="white"/>
      <circle connectorname="4" stroke-width="1.944" id="connector3pad" cx="25.38" r="2.052" cy="9.18" fill="white" stroke="white"/>
      <g id="copper0">
       <circle connectorname="1" stroke-width="1.944" id="connector0pad" cx="3.78" r="2.052" cy="8.46" fill="white" stroke="white"/>
       <path stroke-width="0.72" d="m1.116,5.796,5.328,0,0,5.328,-5.328,0,0,-5.328zM2.34,8.46a1.44,1.44,0,1,0,2.88,0,1.44,1.44,0,1,0,-2.88,0z" fill="white" stroke="white"/>
       <circle connectorname="2" stroke-width="1.944" id="connector1pad" cx="10.98" r="2.052" cy="9.18" fill="white" stroke="white"/>
       <circle connectorname="3" stroke-width="1.944" id="connector2pad" cx="18.18" r="2.052" cy="8.46" fill="white" stroke="white"/>
       <circle connectorname="4" stroke-width="1.944" id="connector3pad" cx="25.38" r="2.052" cy="9.18" fill="white" stroke="white"/>
      </g>
     </g>
    </g>
   </g>
  </g>
  <g partID="57451">
   <g transform="translate(50.3237,57.334)">
    <g transform="matrix(0,-1,1,0,0,0)">
     <g id="copper1" gorn="0.2">
      <rect width="4.13019" x="1.84772" y="1.836" height="4.104" stroke-width="1.95181" fill="white" stroke="white"/>
      <circle connectorname="1" stroke-width="1.95181" id="connector0pad" gorn="0.2.1" cx="3.91281" r="2.0651" cy="3.888" fill="white" stroke="white"/>
      <circle connectorname="2" stroke-width="1.95181" id="connector1pad" gorn="0.2.2" cx="3.91281" r="2.0651" cy="11.088" fill="white" stroke="white"/>
      <circle connectorname="3" stroke-width="1.95181" id="connector2pad" gorn="0.2.3" cx="11.1588" r="2.0651" cy="3.888" fill="white" stroke="white"/>
      <circle connectorname="4" stroke-width="1.95181" id="connector3pad" gorn="0.2.4" cx="11.1588" r="2.0651" cy="11.088" fill="white" stroke="white"/>
      <circle connectorname="5" stroke-width="1.95181" id="connector4pad" gorn="0.2.5" cx="18.4047" r="2.0651" cy="3.888" fill="white" stroke="white"/>
      <circle connectorname="6" stroke-width="1.95181" id="connector5pad" gorn="0.2.6" cx="18.4047" r="2.0651" cy="11.088" fill="white" stroke="white"/>
      <circle connectorname="7" stroke-width="1.95181" id="connector6pad" gorn="0.2.7" cx="25.6507" r="2.0651" cy="3.888" fill="white" stroke="white"/>
      <circle connectorname="8" stroke-width="1.95181" id="connector7pad" gorn="0.2.8" cx="25.6507" r="2.0651" cy="11.088" fill="white" stroke="white"/>
      <g id="copper0" gorn="0.2.9">
       <rect width="4.13019" x="1.84772" y="1.836" height="4.104" stroke-width="1.95181" fill="white" stroke="white"/>
       <circle connectorname="1" stroke-width="1.95181" id="connector6pin" gorn="0.2.9.1" cx="3.91281" r="2.0651" cy="3.888" fill="white" stroke="white"/>
       <circle connectorname="2" stroke-width="1.95181" id="connector7pin" gorn="0.2.9.2" cx="3.91281" r="2.0651" cy="11.088" fill="white" stroke="white"/>
       <circle connectorname="3" stroke-width="1.95181" id="connector4pin" gorn="0.2.9.3" cx="11.1588" r="2.0651" cy="3.888" fill="white" stroke="white"/>
       <circle connectorname="4" stroke-width="1.95181" id="connector5pin" gorn="0.2.9.4" cx="11.1588" r="2.0651" cy="11.088" fill="white" stroke="white"/>
       <circle connectorname="5" stroke-width="1.95181" id="connector2pin" gorn="0.2.9.5" cx="18.4047" r="2.0651" cy="3.888" fill="white" stroke="white"/>
       <circle connectorname="6" stroke-width="1.95181" id="connector3pin" gorn="0.2.9.6" cx="18.4047" r="2.0651" cy="11.088" fill="white" stroke="white"/>
       <rect width="4.13019" x="23.5856" y="1.836" height="4.104" stroke-width="1.95181" fill="white" stroke="white"/>
       <circle connectorname="7" stroke-width="1.95181" id="connector0pin" gorn="0.2.9.8" cx="25.6507" r="2.0651" cy="3.888" fill="white" stroke="white"/>
       <circle connectorname="8" stroke-width="1.95181" id="connector1pin" gorn="0.2.9.9" cx="25.6507" r="2.0651" cy="11.088" fill="white" stroke="white"/>
      </g>
     </g>
    </g>
   </g>
  </g>
 </g>
</svg>
