<?xml version='1.0' encoding='UTF-8' standalone='no'?>
<!-- Created with Fritzing (http://www.fritzing.org/) -->
<svg xmlns="http://www.w3.org/2000/svg" x="0in" width="1.37207in" y="0in" viewBox="0 0 98.7894 70.4353" height="0.978268in"  version="1.2" baseProfile="tiny" xmlns:svg="http://www.w3.org/2000/svg">
 <g partID="57380">
  <g  id="board">
   <rect width="98.2134" x="0.288" y="0.288" height="69.8593" stroke-width="0.5"  id="boardoutline" fill-opacity="0.5" fill="none" stroke="black"/>
  </g>
 </g>
 <g partID="246830">
  <g transform="translate(40.09,0.99112)">
   <g  id="copper0">
    <circle stroke-width="2.16"  id="connector0pad" cx="4.752" r="1.98" cy="4.752" fill="black" stroke="black"/>
    <circle stroke-width="2.16"  id="connector1pad" cx="30.4853" r="1.98" cy="13.8187" fill="black" stroke="black"/>
   </g>
  </g>
 </g>
 <g partID="186740">
  <g transform="translate(0.81968,61.4962)">
   <g  id="copper0">
    <circle stroke-width="1.57039"  id="connector0pin" cx="3.86772" r="1.84252" cy="3.86772" fill="black" stroke="black"/>
   </g>
  </g>
 </g>
 <g partID="186720">
  <g transform="translate(0.89872,1.21704)">
   <g  id="copper0">
    <circle stroke-width="1.57039"  id="connector0pin" cx="3.86772" r="1.84252" cy="3.86772" fill="black" stroke="black"/>
   </g>
  </g>
 </g>
 <g partID="186610">
  <g transform="translate(90.4782,61.9031)">
   <g  id="copper0">
    <circle stroke-width="1.57039"  id="connector0pin" cx="3.86772" r="1.84252" cy="3.86772" fill="black" stroke="black"/>
   </g>
  </g>
 </g>
 <g partID="186580">
  <g transform="translate(90.1902,1.05424)">
   <g  id="copper0">
    <circle stroke-width="1.57039"  id="connector0pin" cx="3.86772" r="1.84252" cy="3.86772" fill="black" stroke="black"/>
   </g>
  </g>
 </g>
 <g partID="137300">
  <g transform="translate(12.1894,49.873)">
   <g transform="matrix(-1,0,0,-1,0,0)">
    <g  id="copper0">
     <circle stroke-width="2.16"  id="connector0pin" cx="5.04" r="2.088" cy="5.04" fill="black" stroke="black"/>
     <circle stroke-width="2.16"  id="connector1pin" cx="5.04" r="2.088" cy="12.24" fill="black" stroke="black"/>
    </g>
   </g>
  </g>
 </g>
 <g partID="227940">
  <g transform="translate(17.0271,62.74)">
   <g transform="matrix(0,-1,1,0,0,0)">
    <g  id="copper0">
     <circle connectorname="1" stroke-width="1.89921"  id="connector0pad" cx="6.30369" r="2.29039" cy="9.92581" fill="black" stroke="black"/>
     <path stroke-width="0.72"  d="m3.42369,7.04581,5.76,0,0,5.76001,-5.76,0,0,-5.76001zM4.6029,9.92581a1.70079,1.70079,0,1,0,3.40158,0,1.70079,1.70079,0,1,0,-3.40158,0z" fill="black" stroke="black"/>
     <circle connectorname="2" stroke-width="1.89921"  id="connector1pad" cx="16.7289" r="2.29039" cy="9.92581" fill="black" stroke="black"/>
     <circle connectorname="3" stroke-width="1.89921"  id="connector2pad" cx="27.1542" r="2.29039" cy="9.92581" fill="black" stroke="black"/>
    </g>
   </g>
  </g>
 </g>
 <g partID="86150">
  <g transform="translate(37.8684,18.3053)">
   <g transform="matrix(0.707107,-0.707107,0.707107,0.707107,0,0)">
    <g  id="copper0">
     <rect width="3.96" x="1.98" y="5.58" height="3.96" stroke-width="2.16"  id="rect11" fill="black" stroke="black"/>
     <circle stroke-width="2.16"  id="connector0pin" cx="3.96" r="1.98" cy="7.56" fill="black" stroke="black"/>
     <circle stroke-width="2.16"  id="connector1pin" cx="11.16" r="1.98" cy="7.56" fill="black" stroke="black"/>
    </g>
   </g>
  </g>
 </g>
 <g partID="85770">
  <g transform="translate(2.74864,8.31648)">
   <g  id="copper0">
    <rect width="3.96" x="1.98" y="5.58" height="3.96" stroke-width="2.16"  id="rect11" fill="black" stroke="black"/>
    <circle stroke-width="2.16"  id="connector0pin" cx="3.96" r="1.98" cy="7.56" fill="black" stroke="black"/>
    <circle stroke-width="2.16"  id="connector1pin" cx="11.16" r="1.98" cy="7.56" fill="black" stroke="black"/>
   </g>
  </g>
 </g>
 <g partID="91170">
  <g transform="translate(73.931,47.7254)">
   <g transform="matrix(0,-1,1,0,0,0)">
    <g  id="copper0">
     <g  id="copper1">
      <!-- <rect width="55" x="10" y="15.5" fill="none" height="55" stroke="rgb(255, 191, 0)" stroke-width="20" />  -->
      <circle stroke-width="2.16"  id="connector0pin" cx="2.7" r="1.98" cy="3.096" fill="black" stroke="black"/>
      <circle stroke-width="2.16"  id="connector1pin" cx="31.5" r="1.98" cy="3.096" fill="black" stroke="black"/>
     </g>
    </g>
   </g>
  </g>
 </g>
 <g partID="91650">
  <g transform="translate(67.4038,52.1796)">
   <g transform="matrix(0,-1,1,0,0,0)">
    <g  id="copper0">
     <g  id="copper1">
      <!-- <rect width="55" x="10" y="15.5" fill="none" height="55" stroke="rgb(255, 191, 0)" stroke-width="20" />  -->
      <circle stroke-width="2.16"  id="connector0pin" cx="2.7" r="1.98" cy="3.096" fill="black" stroke="black"/>
      <circle stroke-width="2.16"  id="connector1pin" cx="31.5" r="1.98" cy="3.096" fill="black" stroke="black"/>
     </g>
    </g>
   </g>
  </g>
 </g>
 <g partID="91990">
  <g transform="translate(46.6254,28.22)">
   <g transform="matrix(0,1,-1,0,0,0)">
    <g  id="copper0">
     <g  id="copper1">
      <!-- <rect width="55" x="10" y="15.5" fill="none" height="55" stroke="rgb(255, 191, 0)" stroke-width="20" />  -->
      <circle stroke-width="2.16"  id="connector0pin" cx="2.7" r="1.98" cy="3.096" fill="black" stroke="black"/>
      <circle stroke-width="2.16"  id="connector1pin" cx="31.5" r="1.98" cy="3.096" fill="black" stroke="black"/>
     </g>
    </g>
   </g>
  </g>
 </g>
 <g partID="102800">
  <g transform="translate(10.7528,21.6034)">
   <g transform="matrix(1,0,0,1,0,0)">
    <g  id="copper0">
     <g  id="copper1">
      <circle stroke-width="2.16"  id="connector0pin" cx="2.88" r="1.8" cy="2.88" fill="black" stroke="black"/>
      <circle stroke-width="2.16"  id="connector1pin" cx="10.0933" r="1.8" cy="2.88" fill="black" stroke="black"/>
     </g>
    </g>
   </g>
  </g>
 </g>
 <g partID="65540">
  <g transform="translate(13.3326,-36.5395)">
   <g  id="copper0">
    <circle connectorname="IN" stroke-width="1.44"  id="connector1pad" cx="7.776" r="1.8" cy="52.416" fill="black" stroke="black"/>
    <path stroke-width="0.72"  d="m7.776,48.096a2.16,2.16,0,0,1,2.16,2.16l0,4.32a2.16,2.16,0,0,1,-2.16,2.16l0,0a2.16,2.16,0,0,1,-2.16,-2.16l0,-4.32a2.16,2.16,0,0,1,2.16,-2.16l0,0zM6.336,52.416a1.44,1.44,0,1,0,2.88,0,1.44,1.44,0,1,0,-2.88,0z" fill="black" stroke="black"/>
    <circle connectorname="GND" stroke-width="1.44"  id="connector0pad" cx="14.976" r="1.8" cy="52.416" fill="black" stroke="black"/>
    <path stroke-width="0.72"  d="m14.976,48.096a2.16,2.16,0,0,1,2.16,2.16l0,4.32a2.16,2.16,0,0,1,-2.16,2.16l0,0a2.16,2.16,0,0,1,-2.16,-2.16l0,-4.32a2.16,2.16,0,0,1,2.16,-2.16l0,0zM13.536,52.416a1.44,1.44,0,1,0,2.88,0,1.44,1.44,0,1,0,-2.88,0z" fill="black" stroke="black"/>
    <circle connectorname="OUT" stroke-width="1.44"  id="connector2pad" cx="22.176" r="1.8" cy="52.416" fill="black" stroke="black"/>
    <path stroke-width="0.72"  d="m22.176,48.096a2.16,2.16,0,0,1,2.16,2.16l0,4.32a2.16,2.16,0,0,1,-2.16,2.16l0,0a2.16,2.16,0,0,1,-2.16,-2.16l0,-4.32a2.16,2.16,0,0,1,2.16,-2.16l0,0zM20.736,52.416a1.44,1.44,0,1,0,2.88,0,1.44,1.44,0,1,0,-2.88,0z" fill="black" stroke="black"/>
    <circle stroke-width="0.72"  id="nonconn1" cx="14.976" r="4.68" cy="9.936" fill="black" stroke="black"/>
   </g>
  </g>
 </g>
 <g partID="68480">
  <g transform="translate(81.203,50.5846)">
   <g transform="matrix(0,-1,1,0,0,0)">
    <g  id="copper0">
     <circle connectorname="1" stroke-width="1.944"  id="connector0pad" cx="3.78" r="2.052" cy="8.46" fill="black" stroke="black"/>
     <path stroke-width="0.72"  d="m1.116,5.796,5.328,0,0,5.328,-5.328,0,0,-5.328zM2.34,8.46a1.44,1.44,0,1,0,2.88,0,1.44,1.44,0,1,0,-2.88,0z" fill="black" stroke="black"/>
     <circle connectorname="2" stroke-width="1.944"  id="connector1pad" cx="10.98" r="2.052" cy="9.18" fill="black" stroke="black"/>
     <circle connectorname="3" stroke-width="1.944"  id="connector2pad" cx="18.18" r="2.052" cy="8.46" fill="black" stroke="black"/>
     <circle connectorname="4" stroke-width="1.944"  id="connector3pad" cx="25.38" r="2.052" cy="9.18" fill="black" stroke="black"/>
    </g>
   </g>
  </g>
 </g>
 <g partID="57450">
  <g transform="translate(50.3237,57.334)">
   <g transform="matrix(0,-1,1,0,0,0)">
    <g  id="copper0" gorn="0.2.9">
     <rect width="4.13019" x="1.84772" y="1.836" height="4.104" stroke-width="1.95181"  fill="black" stroke="black"/>
     <circle connectorname="1" stroke-width="1.95181"  id="connector6pin" gorn="0.2.9.1" cx="3.91281" r="2.0651" cy="3.888" fill="black" stroke="black"/>
     <circle connectorname="2" stroke-width="1.95181"  id="connector7pin" gorn="0.2.9.2" cx="3.91281" r="2.0651" cy="11.088" fill="black" stroke="black"/>
     <circle connectorname="3" stroke-width="1.95181"  id="connector4pin" gorn="0.2.9.3" cx="11.1588" r="2.0651" cy="3.888" fill="black" stroke="black"/>
     <circle connectorname="4" stroke-width="1.95181"  id="connector5pin" gorn="0.2.9.4" cx="11.1588" r="2.0651" cy="11.088" fill="black" stroke="black"/>
     <circle connectorname="5" stroke-width="1.95181"  id="connector2pin" gorn="0.2.9.5" cx="18.4047" r="2.0651" cy="3.888" fill="black" stroke="black"/>
     <circle connectorname="6" stroke-width="1.95181"  id="connector3pin" gorn="0.2.9.6" cx="18.4047" r="2.0651" cy="11.088" fill="black" stroke="black"/>
     <rect width="4.13019" x="23.5856" y="1.836" height="4.104" stroke-width="1.95181"  fill="black" stroke="black"/>
     <circle connectorname="7" stroke-width="1.95181"  id="connector0pin" gorn="0.2.9.8" cx="25.6507" r="2.0651" cy="3.888" fill="black" stroke="black"/>
     <circle connectorname="8" stroke-width="1.95181"  id="connector1pin" gorn="0.2.9.9" cx="25.6507" r="2.0651" cy="11.088" fill="black" stroke="black"/>
    </g>
   </g>
  </g>
 </g>
</svg>
