; NON-PLATED HOLES START AT T1
; THROUGH (PLATED) HOLES START AT T100
M48
INCH
T100C0.040255
T101C0.040000
T102C0.030000
T103C0.035000
T104C0.038000
T105C0.047244
T106C0.039370
%
T100
X007529Y002363
X008529Y002363
X007529Y005382
X008529Y005382
X007529Y004375
X008529Y004375
X007529Y003369
X008529Y003369
T101
X012553Y006282
X002931Y007577
X003931Y007577
X012453Y003282
X004931Y007577
X012453Y005282
X012553Y004282
T102
X002895Y006382
X001893Y006382
T103
X000931Y007577
X009791Y006910
X010698Y003529
X001931Y007577
X006045Y001488
X007097Y007593
X009802Y007725
X009791Y002910
X006228Y008985
X010698Y007529
X006045Y005488
X006390Y006886
T104
X000992Y003555
X000992Y004555
T105
X003743Y001944
X003743Y004840
X003743Y003392
T106
X000651Y000704
X013103Y000647
X000662Y009076
X013063Y009099
T00
M30
