G04 MADE WITH FRITZING*
G04 WWW.FRITZING.ORG*
G04 DOUBLE SIDED*
G04 HOLES PLATED*
G04 CONTOUR ON CENTER OF CONTOUR VECTOR*
%ASAXBY*%
%FSLAX23Y23*%
%MOIN*%
%OFA0B0*%
%SFA1.0B1.0*%
%ADD10C,0.085000*%
%ADD11C,0.072992*%
%ADD12C,0.088000*%
%ADD13C,0.090000*%
%ADD14C,0.080000*%
%ADD15C,0.070000*%
%ADD16C,0.084000*%
%ADD17C,0.084472*%
%ADD18R,0.085000X0.085000*%
%ADD19R,0.084108X0.084472*%
%ADD20C,0.030000*%
%ADD21R,0.001000X0.001000*%
%LNMASK1*%
G90*
G70*
G54D10*
X623Y899D03*
X980Y773D03*
G54D11*
X65Y70D03*
X66Y908D03*
X1310Y65D03*
X1306Y910D03*
G54D12*
X99Y356D03*
X99Y456D03*
G54D13*
X374Y194D03*
X374Y339D03*
X374Y484D03*
X374Y194D03*
X374Y339D03*
X374Y484D03*
G54D10*
X639Y689D03*
X710Y759D03*
X93Y758D03*
X193Y758D03*
X1070Y353D03*
X1070Y753D03*
X979Y291D03*
X979Y691D03*
X605Y549D03*
X605Y149D03*
G54D14*
X189Y638D03*
X290Y638D03*
G54D15*
X293Y758D03*
X393Y758D03*
X493Y758D03*
X293Y758D03*
X393Y758D03*
X493Y758D03*
G54D16*
X1245Y328D03*
X1255Y428D03*
X1245Y528D03*
X1255Y628D03*
X1245Y328D03*
X1255Y428D03*
X1245Y528D03*
X1255Y628D03*
G54D17*
X753Y236D03*
X853Y236D03*
X753Y337D03*
X853Y337D03*
X753Y438D03*
X853Y438D03*
X753Y538D03*
X853Y538D03*
X753Y236D03*
X853Y236D03*
X753Y337D03*
X853Y337D03*
X753Y438D03*
X853Y438D03*
X753Y538D03*
X853Y538D03*
G54D18*
X93Y758D03*
G54D19*
X753Y236D03*
X753Y236D03*
X753Y538D03*
G54D20*
G36*
X639Y728D02*
X678Y689D01*
X639Y650D01*
X600Y689D01*
X639Y728D01*
G37*
D02*
G54D21*
X292Y823D02*
X293Y823D01*
X392Y823D02*
X393Y823D01*
X492Y823D02*
X493Y823D01*
X285Y822D02*
X300Y822D01*
X385Y822D02*
X400Y822D01*
X485Y822D02*
X500Y822D01*
X282Y821D02*
X303Y821D01*
X382Y821D02*
X403Y821D01*
X482Y821D02*
X503Y821D01*
X279Y820D02*
X306Y820D01*
X379Y820D02*
X406Y820D01*
X479Y820D02*
X506Y820D01*
X277Y819D02*
X308Y819D01*
X377Y819D02*
X408Y819D01*
X477Y819D02*
X508Y819D01*
X276Y818D02*
X310Y818D01*
X376Y818D02*
X410Y818D01*
X476Y818D02*
X510Y818D01*
X274Y817D02*
X311Y817D01*
X374Y817D02*
X411Y817D01*
X474Y817D02*
X511Y817D01*
X273Y816D02*
X313Y816D01*
X373Y816D02*
X413Y816D01*
X473Y816D02*
X513Y816D01*
X271Y815D02*
X314Y815D01*
X371Y815D02*
X414Y815D01*
X471Y815D02*
X514Y815D01*
X270Y814D02*
X315Y814D01*
X370Y814D02*
X415Y814D01*
X470Y814D02*
X515Y814D01*
X269Y813D02*
X316Y813D01*
X369Y813D02*
X416Y813D01*
X469Y813D02*
X516Y813D01*
X268Y812D02*
X317Y812D01*
X368Y812D02*
X417Y812D01*
X468Y812D02*
X517Y812D01*
X267Y811D02*
X318Y811D01*
X367Y811D02*
X418Y811D01*
X467Y811D02*
X518Y811D01*
X266Y810D02*
X319Y810D01*
X366Y810D02*
X419Y810D01*
X466Y810D02*
X519Y810D01*
X266Y809D02*
X320Y809D01*
X366Y809D02*
X420Y809D01*
X466Y809D02*
X520Y809D01*
X265Y808D02*
X320Y808D01*
X365Y808D02*
X420Y808D01*
X465Y808D02*
X520Y808D01*
X264Y807D02*
X321Y807D01*
X364Y807D02*
X421Y807D01*
X464Y807D02*
X521Y807D01*
X263Y806D02*
X322Y806D01*
X363Y806D02*
X422Y806D01*
X463Y806D02*
X522Y806D01*
X263Y805D02*
X322Y805D01*
X363Y805D02*
X422Y805D01*
X463Y805D02*
X522Y805D01*
X262Y804D02*
X323Y804D01*
X362Y804D02*
X423Y804D01*
X462Y804D02*
X523Y804D01*
X262Y803D02*
X323Y803D01*
X362Y803D02*
X423Y803D01*
X462Y803D02*
X523Y803D01*
X261Y802D02*
X324Y802D01*
X361Y802D02*
X424Y802D01*
X461Y802D02*
X524Y802D01*
X261Y801D02*
X324Y801D01*
X361Y801D02*
X424Y801D01*
X461Y801D02*
X524Y801D01*
X260Y800D02*
X325Y800D01*
X360Y800D02*
X425Y800D01*
X460Y800D02*
X525Y800D01*
X260Y799D02*
X325Y799D01*
X360Y799D02*
X425Y799D01*
X460Y799D02*
X525Y799D01*
X260Y798D02*
X326Y798D01*
X360Y798D02*
X426Y798D01*
X460Y798D02*
X526Y798D01*
X259Y797D02*
X326Y797D01*
X359Y797D02*
X426Y797D01*
X459Y797D02*
X526Y797D01*
X259Y796D02*
X326Y796D01*
X359Y796D02*
X426Y796D01*
X459Y796D02*
X526Y796D01*
X259Y795D02*
X326Y795D01*
X359Y795D02*
X426Y795D01*
X459Y795D02*
X526Y795D01*
X259Y794D02*
X327Y794D01*
X359Y794D02*
X427Y794D01*
X459Y794D02*
X527Y794D01*
X259Y793D02*
X327Y793D01*
X359Y793D02*
X427Y793D01*
X459Y793D02*
X527Y793D01*
X258Y792D02*
X327Y792D01*
X358Y792D02*
X427Y792D01*
X458Y792D02*
X527Y792D01*
X258Y791D02*
X327Y791D01*
X358Y791D02*
X427Y791D01*
X458Y791D02*
X527Y791D01*
X258Y790D02*
X327Y790D01*
X358Y790D02*
X427Y790D01*
X458Y790D02*
X527Y790D01*
X258Y789D02*
X327Y789D01*
X358Y789D02*
X427Y789D01*
X458Y789D02*
X527Y789D01*
X258Y788D02*
X327Y788D01*
X358Y788D02*
X427Y788D01*
X458Y788D02*
X527Y788D01*
X258Y787D02*
X327Y787D01*
X358Y787D02*
X427Y787D01*
X458Y787D02*
X527Y787D01*
X258Y786D02*
X327Y786D01*
X358Y786D02*
X427Y786D01*
X458Y786D02*
X527Y786D01*
X258Y785D02*
X327Y785D01*
X358Y785D02*
X427Y785D01*
X458Y785D02*
X527Y785D01*
X258Y784D02*
X327Y784D01*
X358Y784D02*
X427Y784D01*
X458Y784D02*
X527Y784D01*
X258Y783D02*
X327Y783D01*
X358Y783D02*
X427Y783D01*
X458Y783D02*
X527Y783D01*
X258Y782D02*
X327Y782D01*
X358Y782D02*
X427Y782D01*
X458Y782D02*
X527Y782D01*
X258Y781D02*
X327Y781D01*
X358Y781D02*
X427Y781D01*
X458Y781D02*
X527Y781D01*
X258Y780D02*
X327Y780D01*
X358Y780D02*
X427Y780D01*
X458Y780D02*
X527Y780D01*
X258Y779D02*
X327Y779D01*
X358Y779D02*
X427Y779D01*
X458Y779D02*
X527Y779D01*
X258Y778D02*
X327Y778D01*
X358Y778D02*
X427Y778D01*
X458Y778D02*
X527Y778D01*
X258Y777D02*
X327Y777D01*
X358Y777D02*
X427Y777D01*
X458Y777D02*
X527Y777D01*
X258Y776D02*
X327Y776D01*
X358Y776D02*
X427Y776D01*
X458Y776D02*
X527Y776D01*
X258Y775D02*
X327Y775D01*
X358Y775D02*
X427Y775D01*
X458Y775D02*
X527Y775D01*
X258Y774D02*
X327Y774D01*
X358Y774D02*
X427Y774D01*
X458Y774D02*
X527Y774D01*
X258Y773D02*
X291Y773D01*
X294Y773D02*
X327Y773D01*
X358Y773D02*
X391Y773D01*
X394Y773D02*
X427Y773D01*
X458Y773D02*
X491Y773D01*
X494Y773D02*
X527Y773D01*
X258Y772D02*
X286Y772D01*
X299Y772D02*
X327Y772D01*
X358Y772D02*
X386Y772D01*
X399Y772D02*
X427Y772D01*
X458Y772D02*
X486Y772D01*
X499Y772D02*
X527Y772D01*
X258Y771D02*
X284Y771D01*
X301Y771D02*
X327Y771D01*
X358Y771D02*
X384Y771D01*
X401Y771D02*
X427Y771D01*
X458Y771D02*
X484Y771D01*
X501Y771D02*
X527Y771D01*
X258Y770D02*
X283Y770D01*
X303Y770D02*
X327Y770D01*
X358Y770D02*
X383Y770D01*
X403Y770D02*
X427Y770D01*
X458Y770D02*
X483Y770D01*
X503Y770D02*
X527Y770D01*
X258Y769D02*
X281Y769D01*
X304Y769D02*
X327Y769D01*
X358Y769D02*
X381Y769D01*
X404Y769D02*
X427Y769D01*
X458Y769D02*
X481Y769D01*
X504Y769D02*
X527Y769D01*
X258Y768D02*
X281Y768D01*
X305Y768D02*
X327Y768D01*
X358Y768D02*
X381Y768D01*
X405Y768D02*
X427Y768D01*
X458Y768D02*
X481Y768D01*
X505Y768D02*
X527Y768D01*
X258Y767D02*
X280Y767D01*
X306Y767D02*
X327Y767D01*
X358Y767D02*
X380Y767D01*
X406Y767D02*
X427Y767D01*
X458Y767D02*
X480Y767D01*
X506Y767D02*
X527Y767D01*
X258Y766D02*
X279Y766D01*
X306Y766D02*
X327Y766D01*
X358Y766D02*
X379Y766D01*
X406Y766D02*
X427Y766D01*
X458Y766D02*
X479Y766D01*
X506Y766D02*
X527Y766D01*
X258Y765D02*
X279Y765D01*
X307Y765D02*
X327Y765D01*
X358Y765D02*
X379Y765D01*
X407Y765D02*
X427Y765D01*
X458Y765D02*
X479Y765D01*
X507Y765D02*
X527Y765D01*
X258Y764D02*
X278Y764D01*
X307Y764D02*
X327Y764D01*
X358Y764D02*
X378Y764D01*
X407Y764D02*
X427Y764D01*
X458Y764D02*
X478Y764D01*
X507Y764D02*
X527Y764D01*
X258Y763D02*
X278Y763D01*
X307Y763D02*
X327Y763D01*
X358Y763D02*
X378Y763D01*
X407Y763D02*
X427Y763D01*
X458Y763D02*
X478Y763D01*
X507Y763D02*
X527Y763D01*
X258Y762D02*
X278Y762D01*
X308Y762D02*
X327Y762D01*
X358Y762D02*
X378Y762D01*
X408Y762D02*
X427Y762D01*
X458Y762D02*
X478Y762D01*
X508Y762D02*
X527Y762D01*
X258Y761D02*
X277Y761D01*
X308Y761D02*
X327Y761D01*
X358Y761D02*
X377Y761D01*
X408Y761D02*
X427Y761D01*
X458Y761D02*
X477Y761D01*
X508Y761D02*
X527Y761D01*
X258Y760D02*
X277Y760D01*
X308Y760D02*
X327Y760D01*
X358Y760D02*
X377Y760D01*
X408Y760D02*
X427Y760D01*
X458Y760D02*
X477Y760D01*
X508Y760D02*
X527Y760D01*
X258Y759D02*
X277Y759D01*
X308Y759D02*
X327Y759D01*
X358Y759D02*
X377Y759D01*
X408Y759D02*
X427Y759D01*
X458Y759D02*
X477Y759D01*
X508Y759D02*
X527Y759D01*
X258Y758D02*
X277Y758D01*
X308Y758D02*
X327Y758D01*
X358Y758D02*
X377Y758D01*
X408Y758D02*
X427Y758D01*
X458Y758D02*
X477Y758D01*
X508Y758D02*
X527Y758D01*
X258Y757D02*
X277Y757D01*
X308Y757D02*
X327Y757D01*
X358Y757D02*
X377Y757D01*
X408Y757D02*
X427Y757D01*
X458Y757D02*
X477Y757D01*
X508Y757D02*
X527Y757D01*
X258Y756D02*
X277Y756D01*
X308Y756D02*
X327Y756D01*
X358Y756D02*
X377Y756D01*
X408Y756D02*
X427Y756D01*
X458Y756D02*
X477Y756D01*
X508Y756D02*
X527Y756D01*
X258Y755D02*
X277Y755D01*
X308Y755D02*
X327Y755D01*
X358Y755D02*
X377Y755D01*
X408Y755D02*
X427Y755D01*
X458Y755D02*
X477Y755D01*
X508Y755D02*
X527Y755D01*
X258Y754D02*
X278Y754D01*
X308Y754D02*
X327Y754D01*
X358Y754D02*
X378Y754D01*
X408Y754D02*
X427Y754D01*
X458Y754D02*
X478Y754D01*
X508Y754D02*
X527Y754D01*
X258Y753D02*
X278Y753D01*
X307Y753D02*
X327Y753D01*
X358Y753D02*
X378Y753D01*
X407Y753D02*
X427Y753D01*
X458Y753D02*
X478Y753D01*
X507Y753D02*
X527Y753D01*
X258Y752D02*
X278Y752D01*
X307Y752D02*
X327Y752D01*
X358Y752D02*
X378Y752D01*
X407Y752D02*
X427Y752D01*
X458Y752D02*
X478Y752D01*
X507Y752D02*
X527Y752D01*
X258Y751D02*
X279Y751D01*
X307Y751D02*
X327Y751D01*
X358Y751D02*
X379Y751D01*
X407Y751D02*
X427Y751D01*
X458Y751D02*
X479Y751D01*
X507Y751D02*
X527Y751D01*
X258Y750D02*
X279Y750D01*
X306Y750D02*
X327Y750D01*
X358Y750D02*
X379Y750D01*
X406Y750D02*
X427Y750D01*
X458Y750D02*
X479Y750D01*
X506Y750D02*
X527Y750D01*
X258Y749D02*
X280Y749D01*
X305Y749D02*
X327Y749D01*
X358Y749D02*
X380Y749D01*
X405Y749D02*
X427Y749D01*
X458Y749D02*
X480Y749D01*
X505Y749D02*
X527Y749D01*
X258Y748D02*
X281Y748D01*
X305Y748D02*
X327Y748D01*
X358Y748D02*
X381Y748D01*
X405Y748D02*
X427Y748D01*
X458Y748D02*
X481Y748D01*
X505Y748D02*
X527Y748D01*
X258Y747D02*
X282Y747D01*
X304Y747D02*
X327Y747D01*
X358Y747D02*
X382Y747D01*
X404Y747D02*
X427Y747D01*
X458Y747D02*
X482Y747D01*
X504Y747D02*
X527Y747D01*
X258Y746D02*
X283Y746D01*
X303Y746D02*
X327Y746D01*
X358Y746D02*
X383Y746D01*
X403Y746D02*
X427Y746D01*
X458Y746D02*
X483Y746D01*
X503Y746D02*
X527Y746D01*
X258Y745D02*
X284Y745D01*
X301Y745D02*
X327Y745D01*
X358Y745D02*
X384Y745D01*
X401Y745D02*
X427Y745D01*
X458Y745D02*
X484Y745D01*
X501Y745D02*
X527Y745D01*
X258Y744D02*
X287Y744D01*
X299Y744D02*
X327Y744D01*
X358Y744D02*
X387Y744D01*
X399Y744D02*
X427Y744D01*
X458Y744D02*
X487Y744D01*
X499Y744D02*
X527Y744D01*
X258Y743D02*
X327Y743D01*
X358Y743D02*
X427Y743D01*
X458Y743D02*
X527Y743D01*
X258Y742D02*
X327Y742D01*
X358Y742D02*
X427Y742D01*
X458Y742D02*
X527Y742D01*
X258Y741D02*
X327Y741D01*
X358Y741D02*
X427Y741D01*
X458Y741D02*
X527Y741D01*
X258Y740D02*
X327Y740D01*
X358Y740D02*
X427Y740D01*
X458Y740D02*
X527Y740D01*
X258Y739D02*
X327Y739D01*
X358Y739D02*
X427Y739D01*
X458Y739D02*
X527Y739D01*
X258Y738D02*
X327Y738D01*
X358Y738D02*
X427Y738D01*
X458Y738D02*
X527Y738D01*
X258Y737D02*
X327Y737D01*
X358Y737D02*
X427Y737D01*
X458Y737D02*
X527Y737D01*
X258Y736D02*
X327Y736D01*
X358Y736D02*
X427Y736D01*
X458Y736D02*
X527Y736D01*
X258Y735D02*
X327Y735D01*
X358Y735D02*
X427Y735D01*
X458Y735D02*
X527Y735D01*
X258Y734D02*
X327Y734D01*
X358Y734D02*
X427Y734D01*
X458Y734D02*
X527Y734D01*
X258Y733D02*
X327Y733D01*
X358Y733D02*
X427Y733D01*
X458Y733D02*
X527Y733D01*
X258Y732D02*
X327Y732D01*
X358Y732D02*
X427Y732D01*
X458Y732D02*
X527Y732D01*
X258Y731D02*
X327Y731D01*
X358Y731D02*
X427Y731D01*
X458Y731D02*
X527Y731D01*
X258Y730D02*
X327Y730D01*
X358Y730D02*
X427Y730D01*
X458Y730D02*
X527Y730D01*
X258Y729D02*
X327Y729D01*
X358Y729D02*
X427Y729D01*
X458Y729D02*
X527Y729D01*
X258Y728D02*
X327Y728D01*
X358Y728D02*
X427Y728D01*
X458Y728D02*
X527Y728D01*
X258Y727D02*
X327Y727D01*
X358Y727D02*
X427Y727D01*
X458Y727D02*
X527Y727D01*
X258Y726D02*
X327Y726D01*
X358Y726D02*
X427Y726D01*
X458Y726D02*
X527Y726D01*
X258Y725D02*
X327Y725D01*
X358Y725D02*
X427Y725D01*
X458Y725D02*
X527Y725D01*
X258Y724D02*
X327Y724D01*
X358Y724D02*
X427Y724D01*
X458Y724D02*
X527Y724D01*
X259Y723D02*
X327Y723D01*
X359Y723D02*
X427Y723D01*
X459Y723D02*
X527Y723D01*
X259Y722D02*
X327Y722D01*
X359Y722D02*
X427Y722D01*
X459Y722D02*
X527Y722D01*
X259Y721D02*
X326Y721D01*
X359Y721D02*
X426Y721D01*
X459Y721D02*
X526Y721D01*
X259Y720D02*
X326Y720D01*
X359Y720D02*
X426Y720D01*
X459Y720D02*
X526Y720D01*
X259Y719D02*
X326Y719D01*
X359Y719D02*
X426Y719D01*
X459Y719D02*
X526Y719D01*
X260Y718D02*
X326Y718D01*
X360Y718D02*
X426Y718D01*
X460Y718D02*
X526Y718D01*
X260Y717D02*
X325Y717D01*
X360Y717D02*
X425Y717D01*
X460Y717D02*
X525Y717D01*
X261Y716D02*
X325Y716D01*
X361Y716D02*
X425Y716D01*
X461Y716D02*
X525Y716D01*
X261Y715D02*
X324Y715D01*
X361Y715D02*
X424Y715D01*
X461Y715D02*
X524Y715D01*
X261Y714D02*
X324Y714D01*
X361Y714D02*
X424Y714D01*
X461Y714D02*
X524Y714D01*
X262Y713D02*
X323Y713D01*
X362Y713D02*
X423Y713D01*
X462Y713D02*
X523Y713D01*
X262Y712D02*
X323Y712D01*
X362Y712D02*
X423Y712D01*
X462Y712D02*
X523Y712D01*
X263Y711D02*
X322Y711D01*
X363Y711D02*
X422Y711D01*
X463Y711D02*
X522Y711D01*
X264Y710D02*
X322Y710D01*
X364Y710D02*
X422Y710D01*
X464Y710D02*
X522Y710D01*
X264Y709D02*
X321Y709D01*
X364Y709D02*
X421Y709D01*
X464Y709D02*
X521Y709D01*
X265Y708D02*
X320Y708D01*
X365Y708D02*
X420Y708D01*
X465Y708D02*
X520Y708D01*
X266Y707D02*
X320Y707D01*
X366Y707D02*
X420Y707D01*
X466Y707D02*
X520Y707D01*
X266Y706D02*
X319Y706D01*
X366Y706D02*
X419Y706D01*
X466Y706D02*
X519Y706D01*
X267Y705D02*
X318Y705D01*
X367Y705D02*
X418Y705D01*
X467Y705D02*
X518Y705D01*
X268Y704D02*
X317Y704D01*
X368Y704D02*
X417Y704D01*
X468Y704D02*
X517Y704D01*
X269Y703D02*
X316Y703D01*
X369Y703D02*
X416Y703D01*
X469Y703D02*
X516Y703D01*
X270Y702D02*
X315Y702D01*
X370Y702D02*
X415Y702D01*
X470Y702D02*
X515Y702D01*
X272Y701D02*
X314Y701D01*
X372Y701D02*
X414Y701D01*
X472Y701D02*
X514Y701D01*
X273Y700D02*
X312Y700D01*
X373Y700D02*
X412Y700D01*
X473Y700D02*
X512Y700D01*
X274Y699D02*
X311Y699D01*
X374Y699D02*
X411Y699D01*
X474Y699D02*
X511Y699D01*
X276Y698D02*
X309Y698D01*
X376Y698D02*
X409Y698D01*
X476Y698D02*
X509Y698D01*
X278Y697D02*
X308Y697D01*
X378Y697D02*
X408Y697D01*
X478Y697D02*
X508Y697D01*
X280Y696D02*
X306Y696D01*
X380Y696D02*
X406Y696D01*
X480Y696D02*
X506Y696D01*
X282Y695D02*
X303Y695D01*
X382Y695D02*
X403Y695D01*
X482Y695D02*
X503Y695D01*
X286Y694D02*
X300Y694D01*
X386Y694D02*
X400Y694D01*
X486Y694D02*
X500Y694D01*
X1203Y370D02*
X1286Y370D01*
X1203Y369D02*
X1286Y369D01*
X1203Y368D02*
X1286Y368D01*
X1203Y367D02*
X1286Y367D01*
X1203Y366D02*
X1286Y366D01*
X1203Y365D02*
X1286Y365D01*
X1203Y364D02*
X1286Y364D01*
X1203Y363D02*
X1286Y363D01*
X1203Y362D02*
X1286Y362D01*
X1203Y361D02*
X1286Y361D01*
X1203Y360D02*
X1286Y360D01*
X1203Y359D02*
X1286Y359D01*
X1203Y358D02*
X1286Y358D01*
X1203Y357D02*
X1286Y357D01*
X1203Y356D02*
X1286Y356D01*
X1203Y355D02*
X1286Y355D01*
X1203Y354D02*
X1286Y354D01*
X1203Y353D02*
X1286Y353D01*
X1203Y352D02*
X1286Y352D01*
X1203Y351D02*
X1286Y351D01*
X1203Y350D02*
X1286Y350D01*
X1203Y349D02*
X1286Y349D01*
X1203Y348D02*
X1286Y348D01*
X1203Y347D02*
X1286Y347D01*
X1203Y346D02*
X1286Y346D01*
X1203Y345D02*
X1286Y345D01*
X1203Y344D02*
X1286Y344D01*
X1203Y343D02*
X1240Y343D01*
X1250Y343D02*
X1286Y343D01*
X1203Y342D02*
X1237Y342D01*
X1252Y342D02*
X1286Y342D01*
X1203Y341D02*
X1235Y341D01*
X1254Y341D02*
X1286Y341D01*
X1203Y340D02*
X1234Y340D01*
X1255Y340D02*
X1286Y340D01*
X1203Y339D02*
X1233Y339D01*
X1256Y339D02*
X1286Y339D01*
X1203Y338D02*
X1232Y338D01*
X1257Y338D02*
X1286Y338D01*
X1203Y337D02*
X1231Y337D01*
X1258Y337D02*
X1286Y337D01*
X1203Y336D02*
X1231Y336D01*
X1259Y336D02*
X1286Y336D01*
X1203Y335D02*
X1230Y335D01*
X1259Y335D02*
X1286Y335D01*
X1203Y334D02*
X1230Y334D01*
X1259Y334D02*
X1286Y334D01*
X1203Y333D02*
X1230Y333D01*
X1260Y333D02*
X1286Y333D01*
X1203Y332D02*
X1230Y332D01*
X1260Y332D02*
X1286Y332D01*
X1203Y331D02*
X1229Y331D01*
X1260Y331D02*
X1286Y331D01*
X1203Y330D02*
X1229Y330D01*
X1260Y330D02*
X1286Y330D01*
X1203Y329D02*
X1229Y329D01*
X1260Y329D02*
X1286Y329D01*
X1203Y328D02*
X1229Y328D01*
X1260Y328D02*
X1286Y328D01*
X1203Y327D02*
X1229Y327D01*
X1260Y327D02*
X1286Y327D01*
X1203Y326D02*
X1229Y326D01*
X1260Y326D02*
X1286Y326D01*
X1203Y325D02*
X1230Y325D01*
X1260Y325D02*
X1286Y325D01*
X1203Y324D02*
X1230Y324D01*
X1260Y324D02*
X1286Y324D01*
X1203Y323D02*
X1230Y323D01*
X1259Y323D02*
X1286Y323D01*
X1203Y322D02*
X1231Y322D01*
X1259Y322D02*
X1286Y322D01*
X1203Y321D02*
X1231Y321D01*
X1258Y321D02*
X1286Y321D01*
X1203Y320D02*
X1232Y320D01*
X1258Y320D02*
X1286Y320D01*
X1203Y319D02*
X1232Y319D01*
X1257Y319D02*
X1286Y319D01*
X1203Y318D02*
X1233Y318D01*
X1256Y318D02*
X1286Y318D01*
X1203Y317D02*
X1234Y317D01*
X1255Y317D02*
X1286Y317D01*
X1203Y316D02*
X1236Y316D01*
X1254Y316D02*
X1286Y316D01*
X1203Y315D02*
X1238Y315D01*
X1252Y315D02*
X1286Y315D01*
X1203Y314D02*
X1241Y314D01*
X1249Y314D02*
X1286Y314D01*
X1203Y313D02*
X1286Y313D01*
X1203Y312D02*
X1286Y312D01*
X1203Y311D02*
X1286Y311D01*
X1203Y310D02*
X1286Y310D01*
X1203Y309D02*
X1286Y309D01*
X1203Y308D02*
X1286Y308D01*
X1203Y307D02*
X1286Y307D01*
X1203Y306D02*
X1286Y306D01*
X1203Y305D02*
X1286Y305D01*
X1203Y304D02*
X1286Y304D01*
X1203Y303D02*
X1286Y303D01*
X1203Y302D02*
X1286Y302D01*
X1203Y301D02*
X1286Y301D01*
X1203Y300D02*
X1286Y300D01*
X1203Y299D02*
X1286Y299D01*
X1203Y298D02*
X1286Y298D01*
X1203Y297D02*
X1286Y297D01*
X1203Y296D02*
X1286Y296D01*
X1203Y295D02*
X1286Y295D01*
X1203Y294D02*
X1286Y294D01*
X1203Y293D02*
X1286Y293D01*
X1203Y292D02*
X1286Y292D01*
X1203Y291D02*
X1286Y291D01*
X1203Y290D02*
X1286Y290D01*
X1203Y289D02*
X1286Y289D01*
X1203Y288D02*
X1286Y288D01*
X1203Y287D02*
X1286Y287D01*
X329Y239D02*
X418Y239D01*
X329Y238D02*
X418Y238D01*
X329Y237D02*
X418Y237D01*
X329Y236D02*
X418Y236D01*
X329Y235D02*
X418Y235D01*
X329Y234D02*
X418Y234D01*
X329Y233D02*
X418Y233D01*
X329Y232D02*
X418Y232D01*
X329Y231D02*
X418Y231D01*
X329Y230D02*
X418Y230D01*
X329Y229D02*
X418Y229D01*
X329Y228D02*
X418Y228D01*
X329Y227D02*
X418Y227D01*
X329Y226D02*
X418Y226D01*
X329Y225D02*
X418Y225D01*
X329Y224D02*
X418Y224D01*
X329Y223D02*
X418Y223D01*
X329Y222D02*
X418Y222D01*
X329Y221D02*
X418Y221D01*
X329Y220D02*
X418Y220D01*
X329Y219D02*
X418Y219D01*
X329Y218D02*
X418Y218D01*
X329Y217D02*
X418Y217D01*
X329Y216D02*
X418Y216D01*
X329Y215D02*
X418Y215D01*
X329Y214D02*
X418Y214D01*
X329Y213D02*
X369Y213D01*
X379Y213D02*
X418Y213D01*
X329Y212D02*
X366Y212D01*
X382Y212D02*
X418Y212D01*
X329Y211D02*
X364Y211D01*
X384Y211D02*
X418Y211D01*
X329Y210D02*
X362Y210D01*
X385Y210D02*
X418Y210D01*
X329Y209D02*
X361Y209D01*
X387Y209D02*
X418Y209D01*
X329Y208D02*
X360Y208D01*
X388Y208D02*
X418Y208D01*
X329Y207D02*
X359Y207D01*
X389Y207D02*
X418Y207D01*
X329Y206D02*
X358Y206D01*
X389Y206D02*
X418Y206D01*
X329Y205D02*
X358Y205D01*
X390Y205D02*
X418Y205D01*
X329Y204D02*
X357Y204D01*
X391Y204D02*
X418Y204D01*
X329Y203D02*
X357Y203D01*
X391Y203D02*
X418Y203D01*
X329Y202D02*
X356Y202D01*
X392Y202D02*
X418Y202D01*
X329Y201D02*
X356Y201D01*
X392Y201D02*
X418Y201D01*
X329Y200D02*
X355Y200D01*
X392Y200D02*
X418Y200D01*
X329Y199D02*
X355Y199D01*
X393Y199D02*
X418Y199D01*
X329Y198D02*
X355Y198D01*
X393Y198D02*
X418Y198D01*
X329Y197D02*
X355Y197D01*
X393Y197D02*
X418Y197D01*
X329Y196D02*
X355Y196D01*
X393Y196D02*
X418Y196D01*
X329Y195D02*
X355Y195D01*
X393Y195D02*
X418Y195D01*
X329Y194D02*
X355Y194D01*
X393Y194D02*
X418Y194D01*
X329Y193D02*
X355Y193D01*
X393Y193D02*
X418Y193D01*
X329Y192D02*
X355Y192D01*
X393Y192D02*
X418Y192D01*
X329Y191D02*
X355Y191D01*
X393Y191D02*
X418Y191D01*
X329Y190D02*
X355Y190D01*
X392Y190D02*
X418Y190D01*
X329Y189D02*
X356Y189D01*
X392Y189D02*
X418Y189D01*
X329Y188D02*
X356Y188D01*
X392Y188D02*
X418Y188D01*
X329Y187D02*
X356Y187D01*
X391Y187D02*
X418Y187D01*
X329Y186D02*
X357Y186D01*
X391Y186D02*
X418Y186D01*
X329Y185D02*
X358Y185D01*
X390Y185D02*
X418Y185D01*
X329Y184D02*
X358Y184D01*
X389Y184D02*
X418Y184D01*
X329Y183D02*
X359Y183D01*
X389Y183D02*
X418Y183D01*
X329Y182D02*
X360Y182D01*
X388Y182D02*
X418Y182D01*
X329Y181D02*
X361Y181D01*
X387Y181D02*
X418Y181D01*
X329Y180D02*
X362Y180D01*
X386Y180D02*
X418Y180D01*
X329Y179D02*
X363Y179D01*
X384Y179D02*
X418Y179D01*
X329Y178D02*
X365Y178D01*
X382Y178D02*
X418Y178D01*
X329Y177D02*
X368Y177D01*
X380Y177D02*
X418Y177D01*
X329Y176D02*
X418Y176D01*
X329Y175D02*
X418Y175D01*
X329Y174D02*
X418Y174D01*
X329Y173D02*
X418Y173D01*
X329Y172D02*
X418Y172D01*
X329Y171D02*
X418Y171D01*
X329Y170D02*
X418Y170D01*
X329Y169D02*
X418Y169D01*
X329Y168D02*
X418Y168D01*
X329Y167D02*
X418Y167D01*
X329Y166D02*
X418Y166D01*
X329Y165D02*
X418Y165D01*
X329Y164D02*
X418Y164D01*
X329Y163D02*
X418Y163D01*
X329Y162D02*
X418Y162D01*
X329Y161D02*
X418Y161D01*
X329Y160D02*
X418Y160D01*
X329Y159D02*
X418Y159D01*
X329Y158D02*
X418Y158D01*
X329Y157D02*
X418Y157D01*
X329Y156D02*
X418Y156D01*
X329Y155D02*
X418Y155D01*
X329Y154D02*
X418Y154D01*
X329Y153D02*
X418Y153D01*
X329Y152D02*
X418Y152D01*
X329Y151D02*
X418Y151D01*
X330Y150D02*
X418Y150D01*
D02*
G04 End of Mask1*
M02*