G04 MADE WITH FRITZING*
G04 WWW.FRITZING.ORG*
G04 DOUBLE SIDED*
G04 HOLES PLATED*
G04 CONTOUR ON CENTER OF CONTOUR VECTOR*
%ASAXBY*%
%FSLAX23Y23*%
%MOIN*%
%OFA0B0*%
%SFA1.0B1.0*%
%ADD10C,0.075000*%
%ADD11C,0.062992*%
%ADD12C,0.078000*%
%ADD13C,0.080000*%
%ADD14C,0.070000*%
%ADD15C,0.060000*%
%ADD16C,0.074000*%
%ADD17C,0.074472*%
%ADD18R,0.075000X0.075000*%
%ADD19R,0.074108X0.074472*%
%ADD20C,0.020000*%
%ADD21R,0.001000X0.001000*%
%LNCOPPER1*%
G90*
G70*
G54D10*
X623Y899D03*
X980Y773D03*
G54D11*
X65Y70D03*
X66Y908D03*
X1310Y65D03*
X1306Y910D03*
G54D12*
X99Y356D03*
X99Y456D03*
G54D13*
X374Y194D03*
X374Y339D03*
X374Y484D03*
X374Y194D03*
X374Y339D03*
X374Y484D03*
G54D10*
X639Y689D03*
X710Y759D03*
X93Y758D03*
X193Y758D03*
X1070Y353D03*
X1070Y753D03*
X979Y291D03*
X979Y691D03*
X605Y549D03*
X605Y149D03*
G54D14*
X189Y638D03*
X290Y638D03*
G54D15*
X293Y758D03*
X393Y758D03*
X493Y758D03*
X293Y758D03*
X393Y758D03*
X493Y758D03*
G54D16*
X1245Y328D03*
X1255Y428D03*
X1245Y528D03*
X1255Y628D03*
X1245Y328D03*
X1255Y428D03*
X1245Y528D03*
X1255Y628D03*
G54D17*
X753Y236D03*
X853Y236D03*
X753Y337D03*
X853Y337D03*
X753Y438D03*
X853Y438D03*
X753Y538D03*
X853Y538D03*
X753Y236D03*
X853Y236D03*
X753Y337D03*
X853Y337D03*
X753Y438D03*
X853Y438D03*
X753Y538D03*
X853Y538D03*
G54D18*
X93Y758D03*
G54D19*
X753Y236D03*
X753Y236D03*
X753Y538D03*
G54D20*
X639Y728D02*
X678Y689D01*
X639Y650D01*
X600Y689D01*
X639Y728D01*
D02*
G54D21*
X292Y818D02*
X293Y818D01*
X392Y818D02*
X393Y818D01*
X492Y818D02*
X493Y818D01*
X285Y817D02*
X300Y817D01*
X385Y817D02*
X400Y817D01*
X485Y817D02*
X500Y817D01*
X282Y816D02*
X303Y816D01*
X382Y816D02*
X403Y816D01*
X482Y816D02*
X503Y816D01*
X280Y815D02*
X305Y815D01*
X380Y815D02*
X405Y815D01*
X480Y815D02*
X505Y815D01*
X278Y814D02*
X307Y814D01*
X378Y814D02*
X407Y814D01*
X478Y814D02*
X507Y814D01*
X277Y813D02*
X309Y813D01*
X377Y813D02*
X409Y813D01*
X477Y813D02*
X509Y813D01*
X275Y812D02*
X310Y812D01*
X375Y812D02*
X410Y812D01*
X475Y812D02*
X510Y812D01*
X274Y811D02*
X311Y811D01*
X374Y811D02*
X411Y811D01*
X474Y811D02*
X511Y811D01*
X273Y810D02*
X313Y810D01*
X373Y810D02*
X413Y810D01*
X473Y810D02*
X513Y810D01*
X272Y809D02*
X314Y809D01*
X372Y809D02*
X414Y809D01*
X472Y809D02*
X514Y809D01*
X271Y808D02*
X315Y808D01*
X371Y808D02*
X415Y808D01*
X471Y808D02*
X515Y808D01*
X270Y807D02*
X315Y807D01*
X370Y807D02*
X415Y807D01*
X470Y807D02*
X515Y807D01*
X269Y806D02*
X316Y806D01*
X369Y806D02*
X416Y806D01*
X469Y806D02*
X516Y806D01*
X268Y805D02*
X317Y805D01*
X368Y805D02*
X417Y805D01*
X468Y805D02*
X517Y805D01*
X268Y804D02*
X318Y804D01*
X368Y804D02*
X418Y804D01*
X468Y804D02*
X518Y804D01*
X267Y803D02*
X318Y803D01*
X367Y803D02*
X418Y803D01*
X467Y803D02*
X518Y803D01*
X267Y802D02*
X319Y802D01*
X367Y802D02*
X419Y802D01*
X467Y802D02*
X519Y802D01*
X266Y801D02*
X319Y801D01*
X366Y801D02*
X419Y801D01*
X466Y801D02*
X519Y801D01*
X266Y800D02*
X320Y800D01*
X366Y800D02*
X420Y800D01*
X466Y800D02*
X520Y800D01*
X265Y799D02*
X320Y799D01*
X365Y799D02*
X420Y799D01*
X465Y799D02*
X520Y799D01*
X265Y798D02*
X320Y798D01*
X365Y798D02*
X420Y798D01*
X465Y798D02*
X520Y798D01*
X265Y797D02*
X321Y797D01*
X365Y797D02*
X421Y797D01*
X465Y797D02*
X521Y797D01*
X264Y796D02*
X321Y796D01*
X364Y796D02*
X421Y796D01*
X464Y796D02*
X521Y796D01*
X264Y795D02*
X321Y795D01*
X364Y795D02*
X421Y795D01*
X464Y795D02*
X521Y795D01*
X264Y794D02*
X322Y794D01*
X364Y794D02*
X422Y794D01*
X464Y794D02*
X522Y794D01*
X264Y793D02*
X322Y793D01*
X364Y793D02*
X422Y793D01*
X464Y793D02*
X522Y793D01*
X263Y792D02*
X322Y792D01*
X363Y792D02*
X422Y792D01*
X463Y792D02*
X522Y792D01*
X263Y791D02*
X322Y791D01*
X363Y791D02*
X422Y791D01*
X463Y791D02*
X522Y791D01*
X263Y790D02*
X322Y790D01*
X363Y790D02*
X422Y790D01*
X463Y790D02*
X522Y790D01*
X263Y789D02*
X322Y789D01*
X363Y789D02*
X422Y789D01*
X463Y789D02*
X522Y789D01*
X263Y788D02*
X322Y788D01*
X363Y788D02*
X422Y788D01*
X463Y788D02*
X522Y788D01*
X263Y787D02*
X322Y787D01*
X363Y787D02*
X422Y787D01*
X463Y787D02*
X522Y787D01*
X263Y786D02*
X322Y786D01*
X363Y786D02*
X422Y786D01*
X463Y786D02*
X522Y786D01*
X263Y785D02*
X322Y785D01*
X363Y785D02*
X422Y785D01*
X463Y785D02*
X522Y785D01*
X263Y784D02*
X322Y784D01*
X363Y784D02*
X422Y784D01*
X463Y784D02*
X522Y784D01*
X263Y783D02*
X322Y783D01*
X363Y783D02*
X422Y783D01*
X463Y783D02*
X522Y783D01*
X263Y782D02*
X322Y782D01*
X363Y782D02*
X422Y782D01*
X463Y782D02*
X522Y782D01*
X263Y781D02*
X322Y781D01*
X363Y781D02*
X422Y781D01*
X463Y781D02*
X522Y781D01*
X263Y780D02*
X322Y780D01*
X363Y780D02*
X422Y780D01*
X463Y780D02*
X522Y780D01*
X263Y779D02*
X322Y779D01*
X363Y779D02*
X422Y779D01*
X463Y779D02*
X522Y779D01*
X263Y778D02*
X292Y778D01*
X294Y778D02*
X322Y778D01*
X363Y778D02*
X392Y778D01*
X394Y778D02*
X422Y778D01*
X463Y778D02*
X492Y778D01*
X494Y778D02*
X522Y778D01*
X263Y777D02*
X286Y777D01*
X299Y777D02*
X322Y777D01*
X363Y777D02*
X386Y777D01*
X399Y777D02*
X422Y777D01*
X463Y777D02*
X486Y777D01*
X499Y777D02*
X522Y777D01*
X263Y776D02*
X283Y776D01*
X302Y776D02*
X322Y776D01*
X363Y776D02*
X383Y776D01*
X402Y776D02*
X422Y776D01*
X463Y776D02*
X483Y776D01*
X502Y776D02*
X522Y776D01*
X263Y775D02*
X282Y775D01*
X304Y775D02*
X322Y775D01*
X363Y775D02*
X382Y775D01*
X404Y775D02*
X422Y775D01*
X463Y775D02*
X482Y775D01*
X504Y775D02*
X522Y775D01*
X263Y774D02*
X280Y774D01*
X305Y774D02*
X322Y774D01*
X363Y774D02*
X380Y774D01*
X405Y774D02*
X422Y774D01*
X463Y774D02*
X480Y774D01*
X505Y774D02*
X522Y774D01*
X263Y773D02*
X279Y773D01*
X306Y773D02*
X322Y773D01*
X363Y773D02*
X379Y773D01*
X406Y773D02*
X422Y773D01*
X463Y773D02*
X479Y773D01*
X506Y773D02*
X522Y773D01*
X263Y772D02*
X278Y772D01*
X307Y772D02*
X322Y772D01*
X363Y772D02*
X378Y772D01*
X407Y772D02*
X422Y772D01*
X463Y772D02*
X478Y772D01*
X507Y772D02*
X522Y772D01*
X263Y771D02*
X277Y771D01*
X308Y771D02*
X322Y771D01*
X363Y771D02*
X377Y771D01*
X408Y771D02*
X422Y771D01*
X463Y771D02*
X477Y771D01*
X508Y771D02*
X522Y771D01*
X263Y770D02*
X276Y770D01*
X309Y770D02*
X322Y770D01*
X363Y770D02*
X376Y770D01*
X409Y770D02*
X422Y770D01*
X463Y770D02*
X476Y770D01*
X509Y770D02*
X522Y770D01*
X263Y769D02*
X275Y769D01*
X310Y769D02*
X322Y769D01*
X363Y769D02*
X375Y769D01*
X410Y769D02*
X422Y769D01*
X463Y769D02*
X475Y769D01*
X510Y769D02*
X522Y769D01*
X263Y768D02*
X275Y768D01*
X310Y768D02*
X322Y768D01*
X363Y768D02*
X375Y768D01*
X410Y768D02*
X422Y768D01*
X463Y768D02*
X475Y768D01*
X510Y768D02*
X522Y768D01*
X263Y767D02*
X274Y767D01*
X311Y767D02*
X322Y767D01*
X363Y767D02*
X374Y767D01*
X411Y767D02*
X422Y767D01*
X463Y767D02*
X474Y767D01*
X511Y767D02*
X522Y767D01*
X263Y766D02*
X274Y766D01*
X311Y766D02*
X322Y766D01*
X363Y766D02*
X374Y766D01*
X411Y766D02*
X422Y766D01*
X463Y766D02*
X474Y766D01*
X511Y766D02*
X522Y766D01*
X263Y765D02*
X273Y765D01*
X312Y765D02*
X322Y765D01*
X363Y765D02*
X373Y765D01*
X412Y765D02*
X422Y765D01*
X463Y765D02*
X473Y765D01*
X512Y765D02*
X522Y765D01*
X263Y764D02*
X273Y764D01*
X312Y764D02*
X322Y764D01*
X363Y764D02*
X373Y764D01*
X412Y764D02*
X422Y764D01*
X463Y764D02*
X473Y764D01*
X512Y764D02*
X522Y764D01*
X263Y763D02*
X273Y763D01*
X312Y763D02*
X322Y763D01*
X363Y763D02*
X373Y763D01*
X412Y763D02*
X422Y763D01*
X463Y763D02*
X473Y763D01*
X512Y763D02*
X522Y763D01*
X263Y762D02*
X273Y762D01*
X313Y762D02*
X322Y762D01*
X363Y762D02*
X373Y762D01*
X413Y762D02*
X422Y762D01*
X463Y762D02*
X473Y762D01*
X513Y762D02*
X522Y762D01*
X263Y761D02*
X272Y761D01*
X313Y761D02*
X322Y761D01*
X363Y761D02*
X372Y761D01*
X413Y761D02*
X422Y761D01*
X463Y761D02*
X472Y761D01*
X513Y761D02*
X522Y761D01*
X263Y760D02*
X272Y760D01*
X313Y760D02*
X322Y760D01*
X363Y760D02*
X372Y760D01*
X413Y760D02*
X422Y760D01*
X463Y760D02*
X472Y760D01*
X513Y760D02*
X522Y760D01*
X263Y759D02*
X272Y759D01*
X313Y759D02*
X322Y759D01*
X363Y759D02*
X372Y759D01*
X413Y759D02*
X422Y759D01*
X463Y759D02*
X472Y759D01*
X513Y759D02*
X522Y759D01*
X263Y758D02*
X272Y758D01*
X313Y758D02*
X322Y758D01*
X363Y758D02*
X372Y758D01*
X413Y758D02*
X422Y758D01*
X463Y758D02*
X472Y758D01*
X513Y758D02*
X522Y758D01*
X263Y757D02*
X272Y757D01*
X313Y757D02*
X322Y757D01*
X363Y757D02*
X372Y757D01*
X413Y757D02*
X422Y757D01*
X463Y757D02*
X472Y757D01*
X513Y757D02*
X522Y757D01*
X263Y756D02*
X272Y756D01*
X313Y756D02*
X322Y756D01*
X363Y756D02*
X372Y756D01*
X413Y756D02*
X422Y756D01*
X463Y756D02*
X472Y756D01*
X513Y756D02*
X522Y756D01*
X263Y755D02*
X272Y755D01*
X313Y755D02*
X322Y755D01*
X363Y755D02*
X372Y755D01*
X413Y755D02*
X422Y755D01*
X463Y755D02*
X472Y755D01*
X513Y755D02*
X522Y755D01*
X263Y754D02*
X273Y754D01*
X313Y754D02*
X322Y754D01*
X363Y754D02*
X373Y754D01*
X413Y754D02*
X422Y754D01*
X463Y754D02*
X473Y754D01*
X513Y754D02*
X522Y754D01*
X263Y753D02*
X273Y753D01*
X312Y753D02*
X322Y753D01*
X363Y753D02*
X373Y753D01*
X412Y753D02*
X422Y753D01*
X463Y753D02*
X473Y753D01*
X512Y753D02*
X522Y753D01*
X263Y752D02*
X273Y752D01*
X312Y752D02*
X322Y752D01*
X363Y752D02*
X373Y752D01*
X412Y752D02*
X422Y752D01*
X463Y752D02*
X473Y752D01*
X512Y752D02*
X522Y752D01*
X263Y751D02*
X273Y751D01*
X312Y751D02*
X322Y751D01*
X363Y751D02*
X373Y751D01*
X412Y751D02*
X422Y751D01*
X463Y751D02*
X473Y751D01*
X512Y751D02*
X522Y751D01*
X263Y750D02*
X274Y750D01*
X311Y750D02*
X322Y750D01*
X363Y750D02*
X374Y750D01*
X411Y750D02*
X422Y750D01*
X463Y750D02*
X474Y750D01*
X511Y750D02*
X522Y750D01*
X263Y749D02*
X274Y749D01*
X311Y749D02*
X322Y749D01*
X363Y749D02*
X374Y749D01*
X411Y749D02*
X422Y749D01*
X463Y749D02*
X474Y749D01*
X511Y749D02*
X522Y749D01*
X263Y748D02*
X275Y748D01*
X310Y748D02*
X322Y748D01*
X363Y748D02*
X375Y748D01*
X410Y748D02*
X422Y748D01*
X463Y748D02*
X475Y748D01*
X510Y748D02*
X522Y748D01*
X263Y747D02*
X276Y747D01*
X310Y747D02*
X322Y747D01*
X363Y747D02*
X376Y747D01*
X410Y747D02*
X422Y747D01*
X463Y747D02*
X476Y747D01*
X510Y747D02*
X522Y747D01*
X263Y746D02*
X276Y746D01*
X309Y746D02*
X322Y746D01*
X363Y746D02*
X376Y746D01*
X409Y746D02*
X422Y746D01*
X463Y746D02*
X476Y746D01*
X509Y746D02*
X522Y746D01*
X263Y745D02*
X277Y745D01*
X308Y745D02*
X322Y745D01*
X363Y745D02*
X377Y745D01*
X408Y745D02*
X422Y745D01*
X463Y745D02*
X477Y745D01*
X508Y745D02*
X522Y745D01*
X263Y744D02*
X278Y744D01*
X307Y744D02*
X322Y744D01*
X363Y744D02*
X378Y744D01*
X407Y744D02*
X422Y744D01*
X463Y744D02*
X478Y744D01*
X507Y744D02*
X522Y744D01*
X263Y743D02*
X279Y743D01*
X306Y743D02*
X322Y743D01*
X363Y743D02*
X379Y743D01*
X406Y743D02*
X422Y743D01*
X463Y743D02*
X479Y743D01*
X506Y743D02*
X522Y743D01*
X263Y742D02*
X280Y742D01*
X305Y742D02*
X322Y742D01*
X363Y742D02*
X380Y742D01*
X405Y742D02*
X422Y742D01*
X463Y742D02*
X480Y742D01*
X505Y742D02*
X522Y742D01*
X263Y741D02*
X282Y741D01*
X303Y741D02*
X322Y741D01*
X363Y741D02*
X382Y741D01*
X403Y741D02*
X422Y741D01*
X463Y741D02*
X482Y741D01*
X503Y741D02*
X522Y741D01*
X263Y740D02*
X284Y740D01*
X302Y740D02*
X322Y740D01*
X363Y740D02*
X384Y740D01*
X402Y740D02*
X422Y740D01*
X463Y740D02*
X484Y740D01*
X502Y740D02*
X522Y740D01*
X263Y739D02*
X286Y739D01*
X299Y739D02*
X322Y739D01*
X363Y739D02*
X386Y739D01*
X399Y739D02*
X422Y739D01*
X463Y739D02*
X486Y739D01*
X499Y739D02*
X522Y739D01*
X263Y738D02*
X322Y738D01*
X363Y738D02*
X422Y738D01*
X463Y738D02*
X522Y738D01*
X263Y737D02*
X322Y737D01*
X363Y737D02*
X422Y737D01*
X463Y737D02*
X522Y737D01*
X263Y736D02*
X322Y736D01*
X363Y736D02*
X422Y736D01*
X463Y736D02*
X522Y736D01*
X263Y735D02*
X322Y735D01*
X363Y735D02*
X422Y735D01*
X463Y735D02*
X522Y735D01*
X263Y734D02*
X322Y734D01*
X363Y734D02*
X422Y734D01*
X463Y734D02*
X522Y734D01*
X263Y733D02*
X322Y733D01*
X363Y733D02*
X422Y733D01*
X463Y733D02*
X522Y733D01*
X263Y732D02*
X322Y732D01*
X363Y732D02*
X422Y732D01*
X463Y732D02*
X522Y732D01*
X263Y731D02*
X322Y731D01*
X363Y731D02*
X422Y731D01*
X463Y731D02*
X522Y731D01*
X263Y730D02*
X322Y730D01*
X363Y730D02*
X422Y730D01*
X463Y730D02*
X522Y730D01*
X263Y729D02*
X322Y729D01*
X363Y729D02*
X422Y729D01*
X463Y729D02*
X522Y729D01*
X263Y728D02*
X322Y728D01*
X363Y728D02*
X422Y728D01*
X463Y728D02*
X522Y728D01*
X263Y727D02*
X322Y727D01*
X363Y727D02*
X422Y727D01*
X463Y727D02*
X522Y727D01*
X263Y726D02*
X322Y726D01*
X363Y726D02*
X422Y726D01*
X463Y726D02*
X522Y726D01*
X263Y725D02*
X322Y725D01*
X363Y725D02*
X422Y725D01*
X463Y725D02*
X522Y725D01*
X263Y724D02*
X322Y724D01*
X363Y724D02*
X422Y724D01*
X463Y724D02*
X522Y724D01*
X264Y723D02*
X322Y723D01*
X364Y723D02*
X422Y723D01*
X464Y723D02*
X522Y723D01*
X264Y722D02*
X322Y722D01*
X364Y722D02*
X422Y722D01*
X464Y722D02*
X522Y722D01*
X264Y721D02*
X321Y721D01*
X364Y721D02*
X421Y721D01*
X464Y721D02*
X521Y721D01*
X264Y720D02*
X321Y720D01*
X364Y720D02*
X421Y720D01*
X464Y720D02*
X521Y720D01*
X265Y719D02*
X321Y719D01*
X365Y719D02*
X421Y719D01*
X465Y719D02*
X521Y719D01*
X265Y718D02*
X320Y718D01*
X365Y718D02*
X420Y718D01*
X465Y718D02*
X520Y718D01*
X265Y717D02*
X320Y717D01*
X365Y717D02*
X420Y717D01*
X465Y717D02*
X520Y717D01*
X266Y716D02*
X320Y716D01*
X366Y716D02*
X420Y716D01*
X466Y716D02*
X520Y716D01*
X266Y715D02*
X319Y715D01*
X366Y715D02*
X419Y715D01*
X466Y715D02*
X519Y715D01*
X267Y714D02*
X319Y714D01*
X367Y714D02*
X419Y714D01*
X467Y714D02*
X519Y714D01*
X267Y713D02*
X318Y713D01*
X367Y713D02*
X418Y713D01*
X467Y713D02*
X518Y713D01*
X268Y712D02*
X317Y712D01*
X368Y712D02*
X417Y712D01*
X468Y712D02*
X517Y712D01*
X268Y711D02*
X317Y711D01*
X368Y711D02*
X417Y711D01*
X468Y711D02*
X517Y711D01*
X269Y710D02*
X316Y710D01*
X369Y710D02*
X416Y710D01*
X469Y710D02*
X516Y710D01*
X270Y709D02*
X315Y709D01*
X370Y709D02*
X415Y709D01*
X470Y709D02*
X515Y709D01*
X271Y708D02*
X314Y708D01*
X371Y708D02*
X414Y708D01*
X471Y708D02*
X514Y708D01*
X272Y707D02*
X313Y707D01*
X372Y707D02*
X413Y707D01*
X472Y707D02*
X513Y707D01*
X273Y706D02*
X312Y706D01*
X373Y706D02*
X412Y706D01*
X473Y706D02*
X512Y706D01*
X274Y705D02*
X311Y705D01*
X374Y705D02*
X411Y705D01*
X474Y705D02*
X511Y705D01*
X275Y704D02*
X310Y704D01*
X375Y704D02*
X410Y704D01*
X475Y704D02*
X510Y704D01*
X277Y703D02*
X309Y703D01*
X377Y703D02*
X409Y703D01*
X477Y703D02*
X509Y703D01*
X278Y702D02*
X307Y702D01*
X378Y702D02*
X407Y702D01*
X478Y702D02*
X507Y702D01*
X280Y701D02*
X305Y701D01*
X380Y701D02*
X405Y701D01*
X480Y701D02*
X505Y701D01*
X283Y700D02*
X303Y700D01*
X383Y700D02*
X403Y700D01*
X483Y700D02*
X503Y700D01*
X286Y699D02*
X299Y699D01*
X386Y699D02*
X399Y699D01*
X486Y699D02*
X499Y699D01*
X1208Y365D02*
X1281Y365D01*
X1208Y364D02*
X1281Y364D01*
X1208Y363D02*
X1281Y363D01*
X1208Y362D02*
X1281Y362D01*
X1208Y361D02*
X1281Y361D01*
X1208Y360D02*
X1281Y360D01*
X1208Y359D02*
X1281Y359D01*
X1208Y358D02*
X1281Y358D01*
X1208Y357D02*
X1281Y357D01*
X1208Y356D02*
X1281Y356D01*
X1208Y355D02*
X1281Y355D01*
X1208Y354D02*
X1281Y354D01*
X1208Y353D02*
X1281Y353D01*
X1208Y352D02*
X1281Y352D01*
X1208Y351D02*
X1281Y351D01*
X1208Y350D02*
X1281Y350D01*
X1208Y349D02*
X1281Y349D01*
X1208Y348D02*
X1240Y348D01*
X1250Y348D02*
X1281Y348D01*
X1208Y347D02*
X1236Y347D01*
X1253Y347D02*
X1281Y347D01*
X1208Y346D02*
X1235Y346D01*
X1255Y346D02*
X1281Y346D01*
X1208Y345D02*
X1233Y345D01*
X1257Y345D02*
X1281Y345D01*
X1208Y344D02*
X1232Y344D01*
X1258Y344D02*
X1281Y344D01*
X1208Y343D02*
X1230Y343D01*
X1259Y343D02*
X1281Y343D01*
X1208Y342D02*
X1229Y342D01*
X1260Y342D02*
X1281Y342D01*
X1208Y341D02*
X1229Y341D01*
X1261Y341D02*
X1281Y341D01*
X1208Y340D02*
X1228Y340D01*
X1262Y340D02*
X1281Y340D01*
X1208Y339D02*
X1227Y339D01*
X1262Y339D02*
X1281Y339D01*
X1208Y338D02*
X1227Y338D01*
X1263Y338D02*
X1281Y338D01*
X1208Y337D02*
X1226Y337D01*
X1263Y337D02*
X1281Y337D01*
X1208Y336D02*
X1226Y336D01*
X1264Y336D02*
X1281Y336D01*
X1208Y335D02*
X1225Y335D01*
X1264Y335D02*
X1281Y335D01*
X1208Y334D02*
X1225Y334D01*
X1264Y334D02*
X1281Y334D01*
X1208Y333D02*
X1225Y333D01*
X1265Y333D02*
X1281Y333D01*
X1208Y332D02*
X1225Y332D01*
X1265Y332D02*
X1281Y332D01*
X1208Y331D02*
X1224Y331D01*
X1265Y331D02*
X1281Y331D01*
X1208Y330D02*
X1224Y330D01*
X1265Y330D02*
X1281Y330D01*
X1208Y329D02*
X1224Y329D01*
X1265Y329D02*
X1281Y329D01*
X1208Y328D02*
X1224Y328D01*
X1265Y328D02*
X1281Y328D01*
X1208Y327D02*
X1224Y327D01*
X1265Y327D02*
X1281Y327D01*
X1208Y326D02*
X1225Y326D01*
X1265Y326D02*
X1281Y326D01*
X1208Y325D02*
X1225Y325D01*
X1265Y325D02*
X1281Y325D01*
X1208Y324D02*
X1225Y324D01*
X1265Y324D02*
X1281Y324D01*
X1208Y323D02*
X1225Y323D01*
X1264Y323D02*
X1281Y323D01*
X1208Y322D02*
X1225Y322D01*
X1264Y322D02*
X1281Y322D01*
X1208Y321D02*
X1226Y321D01*
X1264Y321D02*
X1281Y321D01*
X1208Y320D02*
X1226Y320D01*
X1263Y320D02*
X1281Y320D01*
X1208Y319D02*
X1227Y319D01*
X1263Y319D02*
X1281Y319D01*
X1208Y318D02*
X1227Y318D01*
X1262Y318D02*
X1281Y318D01*
X1208Y317D02*
X1228Y317D01*
X1261Y317D02*
X1281Y317D01*
X1208Y316D02*
X1229Y316D01*
X1261Y316D02*
X1281Y316D01*
X1208Y315D02*
X1230Y315D01*
X1260Y315D02*
X1281Y315D01*
X1208Y314D02*
X1231Y314D01*
X1259Y314D02*
X1281Y314D01*
X1208Y313D02*
X1232Y313D01*
X1258Y313D02*
X1281Y313D01*
X1208Y312D02*
X1233Y312D01*
X1256Y312D02*
X1281Y312D01*
X1208Y311D02*
X1235Y311D01*
X1254Y311D02*
X1281Y311D01*
X1208Y310D02*
X1237Y310D01*
X1252Y310D02*
X1281Y310D01*
X1208Y309D02*
X1241Y309D01*
X1249Y309D02*
X1281Y309D01*
X1208Y308D02*
X1281Y308D01*
X1208Y307D02*
X1281Y307D01*
X1208Y306D02*
X1281Y306D01*
X1208Y305D02*
X1281Y305D01*
X1208Y304D02*
X1281Y304D01*
X1208Y303D02*
X1281Y303D01*
X1208Y302D02*
X1281Y302D01*
X1208Y301D02*
X1281Y301D01*
X1208Y300D02*
X1281Y300D01*
X1208Y299D02*
X1281Y299D01*
X1208Y298D02*
X1281Y298D01*
X1208Y297D02*
X1281Y297D01*
X1208Y296D02*
X1281Y296D01*
X1208Y295D02*
X1281Y295D01*
X1208Y294D02*
X1281Y294D01*
X1208Y293D02*
X1281Y293D01*
X1208Y292D02*
X1281Y292D01*
X334Y234D02*
X413Y234D01*
X334Y233D02*
X413Y233D01*
X334Y232D02*
X413Y232D01*
X334Y231D02*
X413Y231D01*
X334Y230D02*
X413Y230D01*
X334Y229D02*
X413Y229D01*
X334Y228D02*
X413Y228D01*
X334Y227D02*
X413Y227D01*
X334Y226D02*
X413Y226D01*
X334Y225D02*
X413Y225D01*
X334Y224D02*
X413Y224D01*
X334Y223D02*
X413Y223D01*
X334Y222D02*
X413Y222D01*
X334Y221D02*
X413Y221D01*
X334Y220D02*
X413Y220D01*
X334Y219D02*
X413Y219D01*
X334Y218D02*
X369Y218D01*
X379Y218D02*
X413Y218D01*
X334Y217D02*
X365Y217D01*
X383Y217D02*
X413Y217D01*
X334Y216D02*
X363Y216D01*
X385Y216D02*
X413Y216D01*
X334Y215D02*
X361Y215D01*
X387Y215D02*
X413Y215D01*
X334Y214D02*
X359Y214D01*
X388Y214D02*
X413Y214D01*
X334Y213D02*
X358Y213D01*
X389Y213D02*
X413Y213D01*
X334Y212D02*
X357Y212D01*
X391Y212D02*
X413Y212D01*
X334Y211D02*
X356Y211D01*
X392Y211D02*
X413Y211D01*
X334Y210D02*
X355Y210D01*
X392Y210D02*
X413Y210D01*
X334Y209D02*
X354Y209D01*
X393Y209D02*
X413Y209D01*
X334Y208D02*
X354Y208D01*
X394Y208D02*
X413Y208D01*
X334Y207D02*
X353Y207D01*
X395Y207D02*
X413Y207D01*
X334Y206D02*
X352Y206D01*
X395Y206D02*
X413Y206D01*
X334Y205D02*
X352Y205D01*
X396Y205D02*
X413Y205D01*
X334Y204D02*
X352Y204D01*
X396Y204D02*
X413Y204D01*
X334Y203D02*
X351Y203D01*
X397Y203D02*
X413Y203D01*
X334Y202D02*
X351Y202D01*
X397Y202D02*
X413Y202D01*
X334Y201D02*
X350Y201D01*
X397Y201D02*
X413Y201D01*
X334Y200D02*
X350Y200D01*
X397Y200D02*
X413Y200D01*
X334Y199D02*
X350Y199D01*
X398Y199D02*
X413Y199D01*
X334Y198D02*
X350Y198D01*
X398Y198D02*
X413Y198D01*
X334Y197D02*
X350Y197D01*
X398Y197D02*
X413Y197D01*
X334Y196D02*
X350Y196D01*
X398Y196D02*
X413Y196D01*
X334Y195D02*
X350Y195D01*
X398Y195D02*
X413Y195D01*
X334Y194D02*
X350Y194D01*
X398Y194D02*
X413Y194D01*
X334Y193D02*
X350Y193D01*
X398Y193D02*
X413Y193D01*
X334Y192D02*
X350Y192D01*
X398Y192D02*
X413Y192D01*
X334Y191D02*
X350Y191D01*
X398Y191D02*
X413Y191D01*
X334Y190D02*
X350Y190D01*
X397Y190D02*
X413Y190D01*
X334Y189D02*
X350Y189D01*
X397Y189D02*
X413Y189D01*
X334Y188D02*
X351Y188D01*
X397Y188D02*
X413Y188D01*
X334Y187D02*
X351Y187D01*
X397Y187D02*
X413Y187D01*
X334Y186D02*
X351Y186D01*
X396Y186D02*
X413Y186D01*
X334Y185D02*
X352Y185D01*
X396Y185D02*
X413Y185D01*
X334Y184D02*
X352Y184D01*
X395Y184D02*
X413Y184D01*
X334Y183D02*
X353Y183D01*
X395Y183D02*
X413Y183D01*
X334Y182D02*
X354Y182D01*
X394Y182D02*
X413Y182D01*
X334Y181D02*
X354Y181D01*
X393Y181D02*
X413Y181D01*
X334Y180D02*
X355Y180D01*
X393Y180D02*
X413Y180D01*
X334Y179D02*
X356Y179D01*
X392Y179D02*
X413Y179D01*
X334Y178D02*
X357Y178D01*
X391Y178D02*
X413Y178D01*
X334Y177D02*
X358Y177D01*
X390Y177D02*
X413Y177D01*
X334Y176D02*
X359Y176D01*
X389Y176D02*
X413Y176D01*
X334Y175D02*
X361Y175D01*
X387Y175D02*
X413Y175D01*
X334Y174D02*
X362Y174D01*
X385Y174D02*
X413Y174D01*
X334Y173D02*
X364Y173D01*
X383Y173D02*
X413Y173D01*
X334Y172D02*
X368Y172D01*
X380Y172D02*
X413Y172D01*
X334Y171D02*
X413Y171D01*
X334Y170D02*
X413Y170D01*
X334Y169D02*
X413Y169D01*
X334Y168D02*
X413Y168D01*
X334Y167D02*
X413Y167D01*
X334Y166D02*
X413Y166D01*
X334Y165D02*
X413Y165D01*
X334Y164D02*
X413Y164D01*
X334Y163D02*
X413Y163D01*
X334Y162D02*
X413Y162D01*
X334Y161D02*
X413Y161D01*
X334Y160D02*
X413Y160D01*
X334Y159D02*
X413Y159D01*
X334Y158D02*
X413Y158D01*
X334Y157D02*
X413Y157D01*
X334Y156D02*
X413Y156D01*
X335Y155D02*
X413Y155D01*
D02*
G04 End of Copper1*
M02*